<?xml version="1.0" encoding="UTF-8" standalone="no"?>
<!-- Created with Inkscape (http://www.inkscape.org/) -->

<svg
   xmlns:dc="http://purl.org/dc/elements/1.1/"
   xmlns:cc="http://creativecommons.org/ns#"
   xmlns:rdf="http://www.w3.org/1999/02/22-rdf-syntax-ns#"
   xmlns:svg="http://www.w3.org/2000/svg"
   xmlns="http://www.w3.org/2000/svg"
   xmlns:sodipodi="http://sodipodi.sourceforge.net/DTD/sodipodi-0.dtd"
   xmlns:inkscape="http://www.inkscape.org/namespaces/inkscape"
   width="450"
   height="94.5"
   id="svg2"
   version="1.1"
   inkscape:version="0.48.4 r9939"
   sodipodi:docname="bond.svg">
  <sodipodi:namedview
     id="base"
     pagecolor="#ffffff"
     bordercolor="#666666"
     borderopacity="1.0"
     inkscape:pageopacity="0.0"
     inkscape:pageshadow="2"
     inkscape:zoom="1.4"
     inkscape:cx="158.26191"
     inkscape:cy="67.631466"
     inkscape:document-units="mm"
     inkscape:current-layer="layer1"
     showgrid="true"
     inkscape:window-width="1366"
     inkscape:window-height="744"
     inkscape:window-x="0"
     inkscape:window-y="24"
     inkscape:window-maximized="1"
     units="in"
     objecttolerance="20"
     guidetolerance="10000"
     showguides="false"
     borderlayer="false"
     width="279.4mm"
     height="278.4mm"
     fit-margin-top="10"
     fit-margin-right="10"
     fit-margin-bottom="10"
     fit-margin-left="10"
     inkscape:snap-object-midpoints="true">
    <inkscape:grid
       type="xygrid"
       id="grid3004"
       empspacing="5"
       visible="true"
       enabled="true"
       snapvisiblegridlinesonly="true"
       units="mm"
       spacingx="0.5mm"
       spacingy="0.5mm"
       originx="0mm"
       originy="0mm" />
  </sodipodi:namedview>
  <defs
     id="defs4">
    <marker
       inkscape:stockid="StopL"
       orient="auto"
       refY="0"
       refX="0"
       id="StopL"
       style="overflow:visible">
      <path
         id="path4165"
         d="M 0,5.65 0,-5.65"
         style="fill:none;stroke:#000000;stroke-width:1pt"
         transform="scale(0.8,0.8)"
         inkscape:connector-curvature="0" />
    </marker>
    <marker
       inkscape:stockid="EmptyDiamondS"
       orient="auto"
       refY="0"
       refX="0"
       id="EmptyDiamondS"
       style="overflow:visible">
      <path
         id="path4108"
         d="M 0,-7.0710768 -7.0710894,0 0,7.0710589 7.0710462,0 0,-7.0710768 z"
         style="fill:#ffffff;fill-rule:evenodd;stroke:#000000;stroke-width:1pt"
         transform="scale(0.2,0.2)"
         inkscape:connector-curvature="0" />
    </marker>
    <marker
       inkscape:stockid="Tail"
       orient="auto"
       refY="0"
       refX="0"
       id="Tail"
       style="overflow:visible">
      <g
         id="g4032"
         transform="scale(-1.2,-1.2)">
        <path
           id="path4034"
           d="M -3.8048674,-3.9585227 0.54352094,0"
           style="fill:none;stroke:#000000;stroke-width:0.80000001;stroke-linecap:round"
           inkscape:connector-curvature="0" />
        <path
           id="path4036"
           d="M -1.2866832,-3.9585227 3.0617053,0"
           style="fill:none;stroke:#000000;stroke-width:0.80000001;stroke-linecap:round"
           inkscape:connector-curvature="0" />
        <path
           id="path4038"
           d="M 1.3053582,-3.9585227 5.6537466,0"
           style="fill:none;stroke:#000000;stroke-width:0.80000001;stroke-linecap:round"
           inkscape:connector-curvature="0" />
        <path
           id="path4040"
           d="M -3.8048674,4.1775838 0.54352094,0.21974226"
           style="fill:none;stroke:#000000;stroke-width:0.80000001;stroke-linecap:round"
           inkscape:connector-curvature="0" />
        <path
           id="path4042"
           d="M -1.2866832,4.1775838 3.0617053,0.21974226"
           style="fill:none;stroke:#000000;stroke-width:0.80000001;stroke-linecap:round"
           inkscape:connector-curvature="0" />
        <path
           id="path4044"
           d="M 1.3053582,4.1775838 5.6537466,0.21974226"
           style="fill:none;stroke:#000000;stroke-width:0.80000001;stroke-linecap:round"
           inkscape:connector-curvature="0" />
      </g>
    </marker>
    <marker
       inkscape:stockid="DotM"
       orient="auto"
       refY="0"
       refX="0"
       id="DotM"
       style="overflow:visible">
      <path
         id="path4060"
         d="m -2.5,-1 c 0,2.76 -2.24,5 -5,5 -2.76,0 -5,-2.24 -5,-5 0,-2.76 2.24,-5 5,-5 2.76,0 5,2.24 5,5 z"
         style="fill-rule:evenodd;stroke:#000000;stroke-width:1pt"
         transform="matrix(0.4,0,0,0.4,2.96,0.4)"
         inkscape:connector-curvature="0" />
    </marker>
    <marker
       style="overflow:visible"
       id="DistanceEnd"
       refX="0"
       refY="0"
       orient="auto"
       inkscape:stockid="DistanceEnd">
      <g
         id="g2301">
        <path
           style="fill:none;stroke:#ffffff;stroke-width:1.14999998;stroke-linecap:square"
           d="M 0,0 -2,0"
           id="path2316"
           inkscape:connector-curvature="0" />
        <path
           style="fill:#000000;fill-rule:evenodd;stroke:none"
           d="M 0,0 -13,4 -9,0 -13,-4 0,0 z"
           id="path2312"
           inkscape:connector-curvature="0" />
        <path
           style="fill:none;stroke:#000000;stroke-width:1;stroke-linecap:square"
           d="M 0,-4 0,40"
           id="path2314"
           inkscape:connector-curvature="0" />
      </g>
    </marker>
    <marker
       style="overflow:visible"
       id="DistanceStart"
       refX="0"
       refY="0"
       orient="auto"
       inkscape:stockid="DistanceStart">
      <g
         id="g2300">
        <path
           style="fill:none;stroke:#ffffff;stroke-width:1.14999998;stroke-linecap:square"
           d="M 0,0 2,0"
           id="path2306"
           inkscape:connector-curvature="0" />
        <path
           style="fill:#000000;fill-rule:evenodd;stroke:none"
           d="M 0,0 13,4 9,0 13,-4 0,0 z"
           id="path2302"
           inkscape:connector-curvature="0" />
        <path
           style="fill:none;stroke:#000000;stroke-width:1;stroke-linecap:square"
           d="M 0,-4 0,40"
           id="path2304"
           inkscape:connector-curvature="0" />
      </g>
    </marker>
    <marker
       style="overflow:visible"
       id="Arrow1Mstart"
       refX="0"
       refY="0"
       orient="auto"
       inkscape:stockid="Arrow1Mstart">
      <path
         transform="matrix(0.4,0,0,0.4,4,0)"
         style="fill-rule:evenodd;stroke:#000000;stroke-width:1pt"
         d="M 0,0 5,-5 -12.5,0 5,5 0,0 z"
         id="path3837"
         inkscape:connector-curvature="0" />
    </marker>
    <marker
       style="overflow:visible"
       id="Arrow1Mend"
       refX="0"
       refY="0"
       orient="auto"
       inkscape:stockid="Arrow1Mend">
      <path
         transform="matrix(-0.4,0,0,-0.4,-4,0)"
         style="fill-rule:evenodd;stroke:#000000;stroke-width:1pt"
         d="M 0,0 5,-5 -12.5,0 5,5 0,0 z"
         id="path3840"
         inkscape:connector-curvature="0" />
    </marker>
    <marker
       inkscape:stockid="Arrow2Mend"
       orient="auto"
       refY="0"
       refX="0"
       id="Arrow2Mend"
       style="overflow:visible">
      <path
         id="path3858"
         style="fill-rule:evenodd;stroke-width:0.625;stroke-linejoin:round"
         d="M 8.7185878,4.0337352 -2.2072895,0.01601326 8.7185884,-4.0017078 c -1.7454984,2.3720609 -1.7354408,5.6174519 -6e-7,8.035443 z"
         transform="scale(-0.6,-0.6)"
         inkscape:connector-curvature="0" />
    </marker>
    <marker
       inkscape:stockid="Arrow1Lend"
       orient="auto"
       refY="0"
       refX="0"
       id="Arrow1Lend"
       style="overflow:visible">
      <path
         id="path3834"
         d="M 0,0 5,-5 -12.5,0 5,5 0,0 z"
         style="fill-rule:evenodd;stroke:#000000;stroke-width:1pt"
         transform="matrix(-0.8,0,0,-0.8,-10,0)"
         inkscape:connector-curvature="0" />
    </marker>
    <marker
       inkscape:stockid="Arrow2Lend"
       orient="auto"
       refY="0"
       refX="0"
       id="Arrow2Lend"
       style="overflow:visible">
      <path
         id="path3852"
         style="fill-rule:evenodd;stroke-width:0.625;stroke-linejoin:round"
         d="M 8.7185878,4.0337352 -2.2072895,0.01601326 8.7185884,-4.0017078 c -1.7454984,2.3720609 -1.7354408,5.6174519 -6e-7,8.035443 z"
         transform="matrix(-1.1,0,0,-1.1,-1.1,0)"
         inkscape:connector-curvature="0" />
    </marker>
    <marker
       inkscape:stockid="Arrow1Lstart"
       orient="auto"
       refY="0"
       refX="0"
       id="Arrow1Lstart"
       style="overflow:visible">
      <path
         id="path3831"
         d="M 0,0 5,-5 -12.5,0 5,5 0,0 z"
         style="fill-rule:evenodd;stroke:#000000;stroke-width:1pt"
         transform="matrix(0.8,0,0,0.8,10,0)"
         inkscape:connector-curvature="0" />
    </marker>
    <marker
       inkscape:stockid="Arrow2Mendq"
       orient="auto"
       refY="0"
       refX="0"
       id="Arrow2Mendq"
       style="overflow:visible">
      <path
         id="path5586"
         style="fill:#666666;fill-rule:evenodd;stroke:#666666;stroke-width:0.625;stroke-linejoin:round"
         d="M 8.7185878,4.0337352 -2.2072895,0.01601326 8.7185884,-4.0017078 c -1.7454984,2.3720609 -1.7354408,5.6174519 -6e-7,8.035443 z"
         transform="scale(-0.6,-0.6)"
         inkscape:connector-curvature="0" />
    </marker>
    <marker
       style="overflow:visible"
       id="Arrow1Mstartq"
       refX="0"
       refY="0"
       orient="auto"
       inkscape:stockid="Arrow1Mstartq">
      <path
         transform="matrix(0.4,0,0,0.4,4,0)"
         style="fill:#666666;fill-rule:evenodd;stroke:#666666;stroke-width:1pt"
         d="M 0,0 5,-5 -12.5,0 5,5 0,0 z"
         id="path7377"
         inkscape:connector-curvature="0" />
    </marker>
    <marker
       inkscape:stockid="StopLs"
       orient="auto"
       refY="0"
       refX="0"
       id="StopLs"
       style="overflow:visible">
      <path
         id="path8916"
         d="M 0,5.65 0,-5.65"
         style="fill:none;stroke:#666666;stroke-width:1pt"
         transform="scale(0.8,0.8)"
         inkscape:connector-curvature="0" />
    </marker>
    <marker
       inkscape:stockid="StopLM"
       orient="auto"
       refY="0"
       refX="0"
       id="StopLM"
       style="overflow:visible">
      <path
         id="path8919"
         d="M 0,5.65 0,-5.65"
         style="fill:none;stroke:#666666;stroke-width:1pt"
         transform="scale(0.8,0.8)"
         inkscape:connector-curvature="0" />
    </marker>
    <marker
       inkscape:stockid="StopLsh"
       orient="auto"
       refY="0"
       refX="0"
       id="StopLsh"
       style="overflow:visible">
      <path
         id="path9179"
         d="M 0,5.65 0,-5.65"
         style="fill:none;stroke:#999999;stroke-width:1pt"
         transform="scale(0.8,0.8)"
         inkscape:connector-curvature="0" />
    </marker>
    <marker
       inkscape:stockid="StopLMr"
       orient="auto"
       refY="0"
       refX="0"
       id="StopLMr"
       style="overflow:visible">
      <path
         id="path9182"
         d="M 0,5.65 0,-5.65"
         style="fill:none;stroke:#999999;stroke-width:1pt"
         transform="scale(0.8,0.8)"
         inkscape:connector-curvature="0" />
    </marker>
    <marker
       inkscape:stockid="StopLsG"
       orient="auto"
       refY="0"
       refX="0"
       id="StopLsG"
       style="overflow:visible">
      <path
         id="path9383"
         d="M 0,5.65 0,-5.65"
         style="fill:none;stroke:#999999;stroke-width:1pt"
         transform="scale(0.8,0.8)"
         inkscape:connector-curvature="0" />
    </marker>
    <marker
       inkscape:stockid="StopLMw"
       orient="auto"
       refY="0"
       refX="0"
       id="StopLMw"
       style="overflow:visible">
      <path
         id="path9386"
         d="M 0,5.65 0,-5.65"
         style="fill:none;stroke:#999999;stroke-width:1pt"
         transform="scale(0.8,0.8)"
         inkscape:connector-curvature="0" />
    </marker>
    <marker
       inkscape:stockid="StopLsp"
       orient="auto"
       refY="0"
       refX="0"
       id="StopLsp"
       style="overflow:visible">
      <path
         id="path9595"
         d="M 0,5.65 0,-5.65"
         style="fill:none;stroke:#999999;stroke-width:1pt"
         transform="scale(0.8,0.8)"
         inkscape:connector-curvature="0" />
    </marker>
    <marker
       inkscape:stockid="StopLMI"
       orient="auto"
       refY="0"
       refX="0"
       id="StopLMI"
       style="overflow:visible">
      <path
         id="path9598"
         d="M 0,5.65 0,-5.65"
         style="fill:none;stroke:#999999;stroke-width:1pt"
         transform="scale(0.8,0.8)"
         inkscape:connector-curvature="0" />
    </marker>
  </defs>
  <metadata
     id="metadata7">
    <rdf:RDF>
      <cc:Work
         rdf:about="">
        <dc:format>image/svg+xml</dc:format>
        <dc:type
           rdf:resource="http://purl.org/dc/dcmitype/StillImage" />
        <dc:title />
      </cc:Work>
    </rdf:RDF>
  </metadata>
  <g
     inkscape:label="Layer 1"
     inkscape:groupmode="layer"
     id="layer1"
     transform="translate(58.597137,-892.44968)">
    <g
       id="g4536"
       transform="translate(0.00186283,-26.574807)">
      <g
         transform="matrix(0.66666,0,0,0.66666,130.3791,338.53077)"
         id="g4370">
        <rect
           style="fill:none;stroke:#999999;stroke-width:2.65750694;stroke-linecap:round;stroke-linejoin:round;stroke-miterlimit:4;stroke-opacity:1;stroke-dasharray:none;stroke-dashoffset:0"
           id="rect3136"
           width="52.997433"
           height="53.066074"
           x="-17.716503"
           y="892.9101" />
        <path
           style="fill:none;stroke:#666666;stroke-width:2.65750694;stroke-linecap:butt;stroke-linejoin:miter;stroke-miterlimit:4;stroke-opacity:1;stroke-dasharray:none"
           d="m 128.4447,40.889876 c 53.1495,0 53.1495,0 53.1495,0"
           id="path3412"
           inkscape:connector-curvature="0"
           transform="translate(-146.1612,852.02355)" />
        <path
           sodipodi:type="arc"
           style="fill:#666666;stroke:#666666;stroke-width:10.31435013;stroke-linecap:round;stroke-linejoin:round;stroke-miterlimit:4;stroke-opacity:1;stroke-dasharray:none;stroke-dashoffset:0"
           id="path3138"
           sodipodi:cx="53.149605"
           sodipodi:cy="51.023621"
           sodipodi:rx="17.716536"
           sodipodi:ry="17.716536"
           d="m 70.86614,51.023621 c 0,9.784572 -7.931963,17.716535 -17.716535,17.716535 -9.784573,0 -17.716536,-7.931963 -17.716536,-17.716535 0,-9.784573 7.931963,-17.716536 17.716536,-17.716536 9.784572,0 17.716535,7.931963 17.716535,17.716536 z"
           transform="matrix(0.25748474,0,0,0.25781823,-31.401714,879.75527)" />
        <path
           transform="matrix(0.25748474,0,0,0.25781823,21.709179,879.75527)"
           d="m 70.86614,51.023621 c 0,9.784572 -7.931963,17.716535 -17.716535,17.716535 -9.784573,0 -17.716536,-7.931963 -17.716536,-17.716535 0,-9.784573 7.931963,-17.716536 17.716536,-17.716536 9.784572,0 17.716535,7.931963 17.716535,17.716536 z"
           sodipodi:ry="17.716536"
           sodipodi:rx="17.716536"
           sodipodi:cy="51.023621"
           sodipodi:cx="53.149605"
           id="path3140"
           style="fill:#666666;stroke:#666666;stroke-width:10.31435013;stroke-linecap:round;stroke-linejoin:round;stroke-miterlimit:4;stroke-opacity:1;stroke-dasharray:none;stroke-dashoffset:0"
           sodipodi:type="arc" />
        <path
           transform="matrix(0.25748474,0,0,0.25781823,-31.401714,932.90821)"
           d="m 70.86614,51.023621 c 0,9.784572 -7.931963,17.716535 -17.716535,17.716535 -9.784573,0 -17.716536,-7.931963 -17.716536,-17.716535 0,-9.784573 7.931963,-17.716536 17.716536,-17.716536 9.784572,0 17.716535,7.931963 17.716535,17.716536 z"
           sodipodi:ry="17.716536"
           sodipodi:rx="17.716536"
           sodipodi:cy="51.023621"
           sodipodi:cx="53.149605"
           id="path3142"
           style="fill:#ffffff;stroke:#999999;stroke-width:10.31435013;stroke-linecap:round;stroke-linejoin:round;stroke-miterlimit:4;stroke-opacity:1;stroke-dasharray:none;stroke-dashoffset:0"
           sodipodi:type="arc" />
        <path
           sodipodi:type="arc"
           style="fill:#ffffff;stroke:#999999;stroke-width:10.31435013;stroke-linecap:round;stroke-linejoin:round;stroke-miterlimit:4;stroke-opacity:1;stroke-dasharray:none;stroke-dashoffset:0"
           id="path3144"
           sodipodi:cx="53.149605"
           sodipodi:cy="51.023621"
           sodipodi:rx="17.716536"
           sodipodi:ry="17.716536"
           d="m 70.86614,51.023621 c 0,9.784572 -7.931963,17.716535 -17.716535,17.716535 -9.784573,0 -17.716536,-7.931963 -17.716536,-17.716535 0,-9.784573 7.931963,-17.716536 17.716536,-17.716536 9.784572,0 17.716535,7.931963 17.716535,17.716536 z"
           transform="matrix(0.25748474,0,0,0.25781823,21.642403,932.90821)" />
      </g>
      <g
         transform="matrix(0,0.66666,-0.66666,0,820.12183,874.75781)"
         id="g4362">
        <rect
           y="892.9101"
           x="88.582497"
           height="53.066074"
           width="52.997433"
           id="rect4350"
           style="fill:none;stroke:#999999;stroke-width:2.65750694;stroke-linecap:round;stroke-linejoin:round;stroke-miterlimit:4;stroke-opacity:1;stroke-dasharray:none;stroke-dashoffset:0" />
        <path
           inkscape:connector-curvature="0"
           id="path4352"
           d="m 88.5825,892.91343 c 53.1495,0 53.1495,0 53.1495,0"
           style="fill:none;stroke:#666666;stroke-width:2.65750694;stroke-linecap:butt;stroke-linejoin:miter;stroke-miterlimit:4;stroke-opacity:1;stroke-dasharray:none" />
        <path
           transform="matrix(0.25748474,0,0,0.25781823,74.897286,879.75527)"
           d="m 70.86614,51.023621 c 0,9.784572 -7.931963,17.716535 -17.716535,17.716535 -9.784573,0 -17.716536,-7.931963 -17.716536,-17.716535 0,-9.784573 7.931963,-17.716536 17.716536,-17.716536 9.784572,0 17.716535,7.931963 17.716535,17.716536 z"
           sodipodi:ry="17.716536"
           sodipodi:rx="17.716536"
           sodipodi:cy="51.023621"
           sodipodi:cx="53.149605"
           id="path4354"
           style="fill:#666666;stroke:#666666;stroke-width:10.31435013;stroke-linecap:round;stroke-linejoin:round;stroke-miterlimit:4;stroke-opacity:1;stroke-dasharray:none;stroke-dashoffset:0"
           sodipodi:type="arc" />
        <path
           sodipodi:type="arc"
           style="fill:#666666;stroke:#666666;stroke-width:10.31435013;stroke-linecap:round;stroke-linejoin:round;stroke-miterlimit:4;stroke-opacity:1;stroke-dasharray:none;stroke-dashoffset:0"
           id="path4356"
           sodipodi:cx="53.149605"
           sodipodi:cy="51.023621"
           sodipodi:rx="17.716536"
           sodipodi:ry="17.716536"
           d="m 70.86614,51.023621 c 0,9.784572 -7.931963,17.716535 -17.716535,17.716535 -9.784573,0 -17.716536,-7.931963 -17.716536,-17.716535 0,-9.784573 7.931963,-17.716536 17.716536,-17.716536 9.784572,0 17.716535,7.931963 17.716535,17.716536 z"
           transform="matrix(0.25748474,0,0,0.25781823,128.00818,879.75527)" />
        <path
           sodipodi:type="arc"
           style="fill:#ffffff;stroke:#999999;stroke-width:10.31435013;stroke-linecap:round;stroke-linejoin:round;stroke-miterlimit:4;stroke-opacity:1;stroke-dasharray:none;stroke-dashoffset:0"
           id="path4358"
           sodipodi:cx="53.149605"
           sodipodi:cy="51.023621"
           sodipodi:rx="17.716536"
           sodipodi:ry="17.716536"
           d="m 70.86614,51.023621 c 0,9.784572 -7.931963,17.716535 -17.716535,17.716535 -9.784573,0 -17.716536,-7.931963 -17.716536,-17.716535 0,-9.784573 7.931963,-17.716536 17.716536,-17.716536 9.784572,0 17.716535,7.931963 17.716535,17.716536 z"
           transform="matrix(0.25748474,0,0,0.25781823,74.897286,932.90821)" />
        <path
           transform="matrix(0.25748474,0,0,0.25781823,127.9414,932.90821)"
           d="m 70.86614,51.023621 c 0,9.784572 -7.931963,17.716535 -17.716535,17.716535 -9.784573,0 -17.716536,-7.931963 -17.716536,-17.716535 0,-9.784573 7.931963,-17.716536 17.716536,-17.716536 9.784572,0 17.716535,7.931963 17.716535,17.716536 z"
           sodipodi:ry="17.716536"
           sodipodi:rx="17.716536"
           sodipodi:cy="51.023621"
           sodipodi:cx="53.149605"
           id="path4360"
           style="fill:#ffffff;stroke:#999999;stroke-width:10.31435013;stroke-linecap:round;stroke-linejoin:round;stroke-miterlimit:4;stroke-opacity:1;stroke-dasharray:none;stroke-dashoffset:0"
           sodipodi:type="arc" />
      </g>
      <g
         id="g4378"
         transform="matrix(-0.66666,0,0,-0.66666,354.7601,1564.5006)">
        <rect
           style="fill:none;stroke:#999999;stroke-width:2.65750694;stroke-linecap:round;stroke-linejoin:round;stroke-miterlimit:4;stroke-opacity:1;stroke-dasharray:none;stroke-dashoffset:0"
           id="rect4380"
           width="52.997433"
           height="53.066074"
           x="88.582497"
           y="892.9101" />
        <path
           style="fill:none;stroke:#666666;stroke-width:2.65750694;stroke-linecap:butt;stroke-linejoin:miter;stroke-miterlimit:4;stroke-opacity:1;stroke-dasharray:none"
           d="m 88.5825,892.91343 c 53.1495,0 53.1495,0 53.1495,0"
           id="path4382"
           inkscape:connector-curvature="0" />
        <path
           sodipodi:type="arc"
           style="fill:#666666;stroke:#666666;stroke-width:10.31435013;stroke-linecap:round;stroke-linejoin:round;stroke-miterlimit:4;stroke-opacity:1;stroke-dasharray:none;stroke-dashoffset:0"
           id="path4384"
           sodipodi:cx="53.149605"
           sodipodi:cy="51.023621"
           sodipodi:rx="17.716536"
           sodipodi:ry="17.716536"
           d="m 70.86614,51.023621 c 0,9.784572 -7.931963,17.716535 -17.716535,17.716535 -9.784573,0 -17.716536,-7.931963 -17.716536,-17.716535 0,-9.784573 7.931963,-17.716536 17.716536,-17.716536 9.784572,0 17.716535,7.931963 17.716535,17.716536 z"
           transform="matrix(0.25748474,0,0,0.25781823,74.897286,879.75527)" />
        <path
           transform="matrix(0.25748474,0,0,0.25781823,128.00818,879.75527)"
           d="m 70.86614,51.023621 c 0,9.784572 -7.931963,17.716535 -17.716535,17.716535 -9.784573,0 -17.716536,-7.931963 -17.716536,-17.716535 0,-9.784573 7.931963,-17.716536 17.716536,-17.716536 9.784572,0 17.716535,7.931963 17.716535,17.716536 z"
           sodipodi:ry="17.716536"
           sodipodi:rx="17.716536"
           sodipodi:cy="51.023621"
           sodipodi:cx="53.149605"
           id="path4386"
           style="fill:#666666;stroke:#666666;stroke-width:10.31435013;stroke-linecap:round;stroke-linejoin:round;stroke-miterlimit:4;stroke-opacity:1;stroke-dasharray:none;stroke-dashoffset:0"
           sodipodi:type="arc" />
        <path
           transform="matrix(0.25748474,0,0,0.25781823,74.897286,932.90821)"
           d="m 70.86614,51.023621 c 0,9.784572 -7.931963,17.716535 -17.716535,17.716535 -9.784573,0 -17.716536,-7.931963 -17.716536,-17.716535 0,-9.784573 7.931963,-17.716536 17.716536,-17.716536 9.784572,0 17.716535,7.931963 17.716535,17.716536 z"
           sodipodi:ry="17.716536"
           sodipodi:rx="17.716536"
           sodipodi:cy="51.023621"
           sodipodi:cx="53.149605"
           id="path4388"
           style="fill:#ffffff;stroke:#999999;stroke-width:10.31435013;stroke-linecap:round;stroke-linejoin:round;stroke-miterlimit:4;stroke-opacity:1;stroke-dasharray:none;stroke-dashoffset:0"
           sodipodi:type="arc" />
        <path
           sodipodi:type="arc"
           style="fill:#ffffff;stroke:#999999;stroke-width:10.31435013;stroke-linecap:round;stroke-linejoin:round;stroke-miterlimit:4;stroke-opacity:1;stroke-dasharray:none;stroke-dashoffset:0"
           id="path4390"
           sodipodi:cx="53.149605"
           sodipodi:cy="51.023621"
           sodipodi:rx="17.716536"
           sodipodi:ry="17.716536"
           d="m 70.86614,51.023621 c 0,9.784572 -7.931963,17.716535 -17.716535,17.716535 -9.784573,0 -17.716536,-7.931963 -17.716536,-17.716535 0,-9.784573 7.931963,-17.716536 17.716536,-17.716536 9.784572,0 17.716535,7.931963 17.716535,17.716536 z"
           transform="matrix(0.25748474,0,0,0.25781823,127.9414,932.90821)" />
      </g>
      <g
         transform="matrix(0,-0.66666,0.66666,0,-264.11738,1028.2735)"
         id="g4392">
        <rect
           y="892.9101"
           x="88.582497"
           height="53.066074"
           width="52.997433"
           id="rect4394"
           style="fill:none;stroke:#999999;stroke-width:2.65750694;stroke-linecap:round;stroke-linejoin:round;stroke-miterlimit:4;stroke-opacity:1;stroke-dasharray:none;stroke-dashoffset:0" />
        <path
           inkscape:connector-curvature="0"
           id="path4396"
           d="m 88.5825,892.91343 c 53.1495,0 53.1495,0 53.1495,0"
           style="fill:none;stroke:#666666;stroke-width:2.65750694;stroke-linecap:butt;stroke-linejoin:miter;stroke-miterlimit:4;stroke-opacity:1;stroke-dasharray:none" />
        <path
           transform="matrix(0.25748474,0,0,0.25781823,74.897286,879.75527)"
           d="m 70.86614,51.023621 c 0,9.784572 -7.931963,17.716535 -17.716535,17.716535 -9.784573,0 -17.716536,-7.931963 -17.716536,-17.716535 0,-9.784573 7.931963,-17.716536 17.716536,-17.716536 9.784572,0 17.716535,7.931963 17.716535,17.716536 z"
           sodipodi:ry="17.716536"
           sodipodi:rx="17.716536"
           sodipodi:cy="51.023621"
           sodipodi:cx="53.149605"
           id="path4398"
           style="fill:#666666;stroke:#666666;stroke-width:10.31435013;stroke-linecap:round;stroke-linejoin:round;stroke-miterlimit:4;stroke-opacity:1;stroke-dasharray:none;stroke-dashoffset:0"
           sodipodi:type="arc" />
        <path
           sodipodi:type="arc"
           style="fill:#666666;stroke:#666666;stroke-width:10.31435013;stroke-linecap:round;stroke-linejoin:round;stroke-miterlimit:4;stroke-opacity:1;stroke-dasharray:none;stroke-dashoffset:0"
           id="path4400"
           sodipodi:cx="53.149605"
           sodipodi:cy="51.023621"
           sodipodi:rx="17.716536"
           sodipodi:ry="17.716536"
           d="m 70.86614,51.023621 c 0,9.784572 -7.931963,17.716535 -17.716535,17.716535 -9.784573,0 -17.716536,-7.931963 -17.716536,-17.716535 0,-9.784573 7.931963,-17.716536 17.716536,-17.716536 9.784572,0 17.716535,7.931963 17.716535,17.716536 z"
           transform="matrix(0.25748474,0,0,0.25781823,128.00818,879.75527)" />
        <path
           sodipodi:type="arc"
           style="fill:#ffffff;stroke:#999999;stroke-width:10.31435013;stroke-linecap:round;stroke-linejoin:round;stroke-miterlimit:4;stroke-opacity:1;stroke-dasharray:none;stroke-dashoffset:0"
           id="path4402"
           sodipodi:cx="53.149605"
           sodipodi:cy="51.023621"
           sodipodi:rx="17.716536"
           sodipodi:ry="17.716536"
           d="m 70.86614,51.023621 c 0,9.784572 -7.931963,17.716535 -17.716535,17.716535 -9.784573,0 -17.716536,-7.931963 -17.716536,-17.716535 0,-9.784573 7.931963,-17.716536 17.716536,-17.716536 9.784572,0 17.716535,7.931963 17.716535,17.716536 z"
           transform="matrix(0.25748474,0,0,0.25781823,74.897286,932.90821)" />
        <path
           transform="matrix(0.25748474,0,0,0.25781823,127.9414,932.90821)"
           d="m 70.86614,51.023621 c 0,9.784572 -7.931963,17.716535 -17.716535,17.716535 -9.784573,0 -17.716536,-7.931963 -17.716536,-17.716535 0,-9.784573 7.931963,-17.716536 17.716536,-17.716536 9.784572,0 17.716535,7.931963 17.716535,17.716536 z"
           sodipodi:ry="17.716536"
           sodipodi:rx="17.716536"
           sodipodi:cy="51.023621"
           sodipodi:cx="53.149605"
           id="path4404"
           style="fill:#ffffff;stroke:#999999;stroke-width:10.31435013;stroke-linecap:round;stroke-linejoin:round;stroke-miterlimit:4;stroke-opacity:1;stroke-dasharray:none;stroke-dashoffset:0"
           sodipodi:type="arc" />
      </g>
      <g
         transform="matrix(0.66666,0,0,0.66666,-223.93606,338.54479)"
         id="g4426">
        <rect
           style="fill:none;stroke:#999999;stroke-width:2.65750694;stroke-linecap:round;stroke-linejoin:round;stroke-miterlimit:4;stroke-opacity:1;stroke-dasharray:none;stroke-dashoffset:0"
           id="rect4408"
           width="52.997433"
           height="53.066074"
           x="-946.04199"
           y="407.4585"
           transform="matrix(0,-1,1,0,0,0)" />
        <path
           style="fill:none;stroke:#666666;stroke-width:2.65750694;stroke-linecap:butt;stroke-linejoin:miter;stroke-miterlimit:4;stroke-opacity:1;stroke-dasharray:none"
           d="M 407.46182,946.042 C 460.629,892.91343 460.629,892.91343 460.629,892.91343"
           id="path4410"
           inkscape:connector-curvature="0"
           sodipodi:nodetypes="cc" />
        <path
           sodipodi:type="arc"
           style="fill:#666666;stroke:#666666;stroke-width:10.31435013;stroke-linecap:round;stroke-linejoin:round;stroke-miterlimit:4;stroke-opacity:1;stroke-dasharray:none;stroke-dashoffset:0"
           id="path4412"
           sodipodi:cx="53.149605"
           sodipodi:cy="51.023621"
           sodipodi:rx="17.716536"
           sodipodi:ry="17.716536"
           d="m 70.86614,51.023621 c 0,9.784572 -7.931963,17.716535 -17.716535,17.716535 -9.784573,0 -17.716536,-7.931963 -17.716536,-17.716535 0,-9.784573 7.931963,-17.716536 17.716536,-17.716536 9.784572,0 17.716535,7.931963 17.716535,17.716536 z"
           transform="matrix(0,-0.25748474,0.25781823,0,394.30366,959.72721)" />
        <path
           transform="matrix(0,-0.25748474,0.25781823,0,394.30366,906.61632)"
           d="m 70.86614,51.023621 c 0,9.784572 -7.931963,17.716535 -17.716535,17.716535 -9.784573,0 -17.716536,-7.931963 -17.716536,-17.716535 0,-9.784573 7.931963,-17.716536 17.716536,-17.716536 9.784572,0 17.716535,7.931963 17.716535,17.716536 z"
           sodipodi:ry="17.716536"
           sodipodi:rx="17.716536"
           sodipodi:cy="51.023621"
           sodipodi:cx="53.149605"
           id="path4414"
           style="fill:#ffffff;stroke:#999999;stroke-width:10.31435013;stroke-linecap:round;stroke-linejoin:round;stroke-miterlimit:4;stroke-opacity:1;stroke-dasharray:none;stroke-dashoffset:0"
           sodipodi:type="arc" />
        <path
           transform="matrix(0,-0.25748474,0.25781823,0,447.4566,959.72721)"
           d="m 70.86614,51.023621 c 0,9.784572 -7.931963,17.716535 -17.716535,17.716535 -9.784573,0 -17.716536,-7.931963 -17.716536,-17.716535 0,-9.784573 7.931963,-17.716536 17.716536,-17.716536 9.784572,0 17.716535,7.931963 17.716535,17.716536 z"
           sodipodi:ry="17.716536"
           sodipodi:rx="17.716536"
           sodipodi:cy="51.023621"
           sodipodi:cx="53.149605"
           id="path4416"
           style="fill:#ffffff;stroke:#999999;stroke-width:10.31435013;stroke-linecap:round;stroke-linejoin:round;stroke-miterlimit:4;stroke-opacity:1;stroke-dasharray:none;stroke-dashoffset:0"
           sodipodi:type="arc" />
        <path
           sodipodi:type="arc"
           style="fill:#666666;stroke:#666666;stroke-width:10.31435013;stroke-linecap:round;stroke-linejoin:round;stroke-miterlimit:4;stroke-opacity:1;stroke-dasharray:none;stroke-dashoffset:0"
           id="path4418"
           sodipodi:cx="53.149605"
           sodipodi:cy="51.023621"
           sodipodi:rx="17.716536"
           sodipodi:ry="17.716536"
           d="m 70.86614,51.023621 c 0,9.784572 -7.931963,17.716535 -17.716535,17.716535 -9.784573,0 -17.716536,-7.931963 -17.716536,-17.716535 0,-9.784573 7.931963,-17.716536 17.716536,-17.716536 9.784572,0 17.716535,7.931963 17.716535,17.716536 z"
           transform="matrix(0,-0.25748474,0.25781823,0,447.4566,906.6831)" />
      </g>
      <g
         transform="matrix(-0.66666,0,0,0.66666,283.90528,338.54479)"
         id="g4434">
        <rect
           transform="matrix(0,-1,1,0,0,0)"
           y="407.4585"
           x="-946.04199"
           height="53.066074"
           width="52.997433"
           id="rect4436"
           style="fill:none;stroke:#999999;stroke-width:2.65750694;stroke-linecap:round;stroke-linejoin:round;stroke-miterlimit:4;stroke-opacity:1;stroke-dasharray:none;stroke-dashoffset:0" />
        <path
           sodipodi:nodetypes="cc"
           inkscape:connector-curvature="0"
           id="path4438"
           d="M 407.46182,946.042 C 460.629,892.91343 460.629,892.91343 460.629,892.91343"
           style="fill:none;stroke:#666666;stroke-width:2.65750694;stroke-linecap:butt;stroke-linejoin:miter;stroke-miterlimit:4;stroke-opacity:1;stroke-dasharray:none" />
        <path
           transform="matrix(0,-0.25748474,0.25781823,0,394.30366,959.72721)"
           d="m 70.86614,51.023621 c 0,9.784572 -7.931963,17.716535 -17.716535,17.716535 -9.784573,0 -17.716536,-7.931963 -17.716536,-17.716535 0,-9.784573 7.931963,-17.716536 17.716536,-17.716536 9.784572,0 17.716535,7.931963 17.716535,17.716536 z"
           sodipodi:ry="17.716536"
           sodipodi:rx="17.716536"
           sodipodi:cy="51.023621"
           sodipodi:cx="53.149605"
           id="path4440"
           style="fill:#666666;stroke:#666666;stroke-width:10.31435013;stroke-linecap:round;stroke-linejoin:round;stroke-miterlimit:4;stroke-opacity:1;stroke-dasharray:none;stroke-dashoffset:0"
           sodipodi:type="arc" />
        <path
           sodipodi:type="arc"
           style="fill:#ffffff;stroke:#999999;stroke-width:10.31435013;stroke-linecap:round;stroke-linejoin:round;stroke-miterlimit:4;stroke-opacity:1;stroke-dasharray:none;stroke-dashoffset:0"
           id="path4442"
           sodipodi:cx="53.149605"
           sodipodi:cy="51.023621"
           sodipodi:rx="17.716536"
           sodipodi:ry="17.716536"
           d="m 70.86614,51.023621 c 0,9.784572 -7.931963,17.716535 -17.716535,17.716535 -9.784573,0 -17.716536,-7.931963 -17.716536,-17.716535 0,-9.784573 7.931963,-17.716536 17.716536,-17.716536 9.784572,0 17.716535,7.931963 17.716535,17.716536 z"
           transform="matrix(0,-0.25748474,0.25781823,0,394.30366,906.61632)" />
        <path
           sodipodi:type="arc"
           style="fill:#ffffff;stroke:#999999;stroke-width:10.31435013;stroke-linecap:round;stroke-linejoin:round;stroke-miterlimit:4;stroke-opacity:1;stroke-dasharray:none;stroke-dashoffset:0"
           id="path4444"
           sodipodi:cx="53.149605"
           sodipodi:cy="51.023621"
           sodipodi:rx="17.716536"
           sodipodi:ry="17.716536"
           d="m 70.86614,51.023621 c 0,9.784572 -7.931963,17.716535 -17.716535,17.716535 -9.784573,0 -17.716536,-7.931963 -17.716536,-17.716535 0,-9.784573 7.931963,-17.716536 17.716536,-17.716536 9.784572,0 17.716535,7.931963 17.716535,17.716536 z"
           transform="matrix(0,-0.25748474,0.25781823,0,447.4566,959.72721)" />
        <path
           transform="matrix(0,-0.25748474,0.25781823,0,447.4566,906.6831)"
           d="m 70.86614,51.023621 c 0,9.784572 -7.931963,17.716535 -17.716535,17.716535 -9.784573,0 -17.716536,-7.931963 -17.716536,-17.716535 0,-9.784573 7.931963,-17.716536 17.716536,-17.716536 9.784572,0 17.716535,7.931963 17.716535,17.716536 z"
           sodipodi:ry="17.716536"
           sodipodi:rx="17.716536"
           sodipodi:cy="51.023621"
           sodipodi:cx="53.149605"
           id="path4446"
           style="fill:#666666;stroke:#666666;stroke-width:10.31435013;stroke-linecap:round;stroke-linejoin:round;stroke-miterlimit:4;stroke-opacity:1;stroke-dasharray:none;stroke-dashoffset:0"
           sodipodi:type="arc" />
      </g>
    </g>
    <path
       style="fill:none;stroke:#999999;stroke-width:1.77165353;stroke-linecap:round;stroke-linejoin:round;stroke-miterlimit:4;stroke-opacity:1;stroke-dasharray:none"
       d="m -32.022334,940.65834 0,17.71654 124.015747,0 0,-17.71654"
       id="path4580"
       inkscape:connector-curvature="0" />
    <path
       style="fill:none;stroke:#999999;stroke-width:1.77165353;stroke-linecap:round;stroke-linejoin:round;stroke-miterlimit:4;stroke-opacity:1;stroke-dasharray:none"
       d="m 109.70995,940.65834 0,17.71654 265.74803,0 0,-17.71654"
       id="path4582"
       inkscape:connector-curvature="0" />
    <text
       xml:space="preserve"
       style="font-size:20px;font-style:normal;font-variant:normal;font-weight:normal;font-stretch:normal;text-align:start;line-height:125%;letter-spacing:0px;word-spacing:0px;writing-mode:lr-tb;text-anchor:start;fill:#000000;fill-opacity:1;stroke:none;font-family:Open Sans;-inkscape-font-specification:Open Sans"
       x="48.487324"
       y="125.90863"
       id="text5520"
       sodipodi:linespacing="125%"
       transform="translate(-58.597137,851.94968)"><tspan
         sodipodi:role="line"
         id="tspan5522"
         x="48.487324"
         y="125.90863" /></text>
    <text
       xml:space="preserve"
       style="font-size:14px;font-style:normal;font-variant:normal;font-weight:normal;font-stretch:normal;text-align:start;line-height:125%;letter-spacing:0px;word-spacing:0px;writing-mode:lr-tb;text-anchor:start;fill:#666666;fill-opacity:1;stroke:none;font-family:Open Sans;-inkscape-font-specification:Open Sans"
       x="23.440609"
       y="976.09143"
       id="text5524"
       sodipodi:linespacing="125%"><tspan
         sodipodi:role="line"
         id="tspan5526"
         x="23.440609"
         y="976.09143">V<tspan
   style="font-size:65.00091553%;baseline-shift:sub;fill:#666666"
   id="tspan5528">0</tspan></tspan></text>
    <text
       sodipodi:linespacing="125%"
       id="text5530"
       y="976.09143"
       x="236.82552"
       style="font-size:14px;font-style:normal;font-variant:normal;font-weight:normal;font-stretch:normal;text-align:start;line-height:125%;letter-spacing:0px;word-spacing:0px;writing-mode:lr-tb;text-anchor:start;fill:#666666;fill-opacity:1;stroke:none;font-family:Open Sans;-inkscape-font-specification:Open Sans"
       xml:space="preserve"><tspan
         y="976.09143"
         x="236.82552"
         id="tspan5532"
         sodipodi:role="line">V<tspan
   id="tspan5534"
   style="font-size:65.00091553%;baseline-shift:sub;fill:#666666">1</tspan></tspan></text>
  </g>
</svg>
