<?xml version="1.0" encoding="UTF-8" standalone="no"?>
<!-- Created with Inkscape (http://www.inkscape.org/) -->

<svg
   xmlns:dc="http://purl.org/dc/elements/1.1/"
   xmlns:cc="http://creativecommons.org/ns#"
   xmlns:rdf="http://www.w3.org/1999/02/22-rdf-syntax-ns#"
   xmlns:svg="http://www.w3.org/2000/svg"
   xmlns="http://www.w3.org/2000/svg"
   xmlns:sodipodi="http://sodipodi.sourceforge.net/DTD/sodipodi-0.dtd"
   xmlns:inkscape="http://www.inkscape.org/namespaces/inkscape"
   width="450"
   height="198"
   id="svg2"
   version="1.1"
   inkscape:version="0.48.4 r9939"
   sodipodi:docname="ising.svg">
  <sodipodi:namedview
     id="base"
     pagecolor="#ffffff"
     bordercolor="#666666"
     borderopacity="1.0"
     inkscape:pageopacity="0.0"
     inkscape:pageshadow="2"
     inkscape:zoom="1.4"
     inkscape:cx="197.88718"
     inkscape:cy="187.33629"
     inkscape:document-units="mm"
     inkscape:current-layer="layer1"
     showgrid="true"
     inkscape:window-width="1366"
     inkscape:window-height="744"
     inkscape:window-x="0"
     inkscape:window-y="24"
     inkscape:window-maximized="1"
     units="in"
     objecttolerance="20"
     guidetolerance="10000"
     inkscape:snap-object-midpoints="true"
     inkscape:object-nodes="false"
     inkscape:object-paths="false"
     inkscape:snap-grids="true"
     inkscape:snap-smooth-nodes="false"
     inkscape:snap-global="true">
    <inkscape:grid
       spacingy="0.5mm"
       spacingx="0.5mm"
       units="mm"
       snapvisiblegridlinesonly="true"
       enabled="true"
       visible="true"
       empspacing="5"
       id="grid3004"
       type="xygrid" />
  </sodipodi:namedview>
  <defs
     id="defs4">
    <marker
       style="overflow:visible"
       id="Arrow2Mstart"
       refX="0"
       refY="0"
       orient="auto"
       inkscape:stockid="Arrow2Mstart">
      <path
         transform="scale(0.6,0.6)"
         d="M 8.7185878,4.0337352 -2.2072895,0.01601326 8.7185884,-4.0017078 c -1.7454984,2.3720609 -1.7354408,5.6174519 -6e-7,8.035443 z"
         style="fill-rule:evenodd;stroke-width:0.625;stroke-linejoin:round"
         id="path6760"
         inkscape:connector-curvature="0" />
    </marker>
    <marker
       style="overflow:visible"
       id="Arrow2Sstart"
       refX="0"
       refY="0"
       orient="auto"
       inkscape:stockid="Arrow2Sstart">
      <path
         transform="matrix(0.3,0,0,0.3,-0.69,0)"
         d="M 8.7185878,4.0337352 -2.2072895,0.01601326 8.7185884,-4.0017078 c -1.7454984,2.3720609 -1.7354408,5.6174519 -6e-7,8.035443 z"
         style="fill-rule:evenodd;stroke-width:0.625;stroke-linejoin:round"
         id="path6766"
         inkscape:connector-curvature="0" />
    </marker>
    <marker
       style="overflow:visible"
       id="Arrow2Lstart"
       refX="0"
       refY="0"
       orient="auto"
       inkscape:stockid="Arrow2Lstart">
      <path
         transform="matrix(1.1,0,0,1.1,1.1,0)"
         d="M 8.7185878,4.0337352 -2.2072895,0.01601326 8.7185884,-4.0017078 c -1.7454984,2.3720609 -1.7354408,5.6174519 -6e-7,8.035443 z"
         style="fill-rule:evenodd;stroke-width:0.625;stroke-linejoin:round"
         id="path6754"
         inkscape:connector-curvature="0" />
    </marker>
    <marker
       style="overflow:visible"
       id="Arrow1Sstart"
       refX="0"
       refY="0"
       orient="auto"
       inkscape:stockid="Arrow1Sstart">
      <path
         transform="matrix(0.2,0,0,0.2,1.2,0)"
         style="fill-rule:evenodd;stroke:#000000;stroke-width:1pt"
         d="M 0,0 5,-5 -12.5,0 5,5 0,0 z"
         id="path6748"
         inkscape:connector-curvature="0" />
    </marker>
    <marker
       inkscape:stockid="Arrow1Mstart"
       orient="auto"
       refY="0"
       refX="0"
       id="Arrow1Mstart"
       style="overflow:visible">
      <path
         inkscape:connector-curvature="0"
         id="path3837"
         d="M 0,0 5,-5 -12.5,0 5,5 0,0 z"
         style="fill-rule:evenodd;stroke:#000000;stroke-width:1pt"
         transform="matrix(0.4,0,0,0.4,4,0)" />
    </marker>
    <marker
       inkscape:stockid="Arrow1Mend"
       orient="auto"
       refY="0"
       refX="0"
       id="Arrow1Mend"
       style="overflow:visible">
      <path
         inkscape:connector-curvature="0"
         id="path3840"
         d="M 0,0 5,-5 -12.5,0 5,5 0,0 z"
         style="fill-rule:evenodd;stroke:#000000;stroke-width:1pt"
         transform="matrix(-0.4,0,0,-0.4,-4,0)" />
    </marker>
    <marker
       style="overflow:visible"
       id="Arrow2Mend"
       refX="0"
       refY="0"
       orient="auto"
       inkscape:stockid="Arrow2Mend">
      <path
         inkscape:connector-curvature="0"
         transform="scale(-0.6,-0.6)"
         d="M 8.7185878,4.0337352 -2.2072895,0.01601326 8.7185884,-4.0017078 c -1.7454984,2.3720609 -1.7354408,5.6174519 -6e-7,8.035443 z"
         style="fill-rule:evenodd;stroke-width:0.625;stroke-linejoin:round"
         id="path3858" />
    </marker>
    <marker
       style="overflow:visible"
       id="Arrow1Lend"
       refX="0"
       refY="0"
       orient="auto"
       inkscape:stockid="Arrow1Lend">
      <path
         inkscape:connector-curvature="0"
         transform="matrix(-0.8,0,0,-0.8,-10,0)"
         style="fill-rule:evenodd;stroke:#000000;stroke-width:1pt"
         d="M 0,0 5,-5 -12.5,0 5,5 0,0 z"
         id="path3834" />
    </marker>
    <marker
       style="overflow:visible"
       id="Arrow2Lend"
       refX="0"
       refY="0"
       orient="auto"
       inkscape:stockid="Arrow2Lend">
      <path
         inkscape:connector-curvature="0"
         transform="matrix(-1.1,0,0,-1.1,-1.1,0)"
         d="M 8.7185878,4.0337352 -2.2072895,0.01601326 8.7185884,-4.0017078 c -1.7454984,2.3720609 -1.7354408,5.6174519 -6e-7,8.035443 z"
         style="fill-rule:evenodd;stroke-width:0.625;stroke-linejoin:round"
         id="path3852" />
    </marker>
    <marker
       style="overflow:visible"
       id="Arrow1Lstart"
       refX="0"
       refY="0"
       orient="auto"
       inkscape:stockid="Arrow1Lstart">
      <path
         inkscape:connector-curvature="0"
         transform="matrix(0.8,0,0,0.8,10,0)"
         style="fill-rule:evenodd;stroke:#000000;stroke-width:1pt"
         d="M 0,0 5,-5 -12.5,0 5,5 0,0 z"
         id="path3831" />
    </marker>
    <marker
       style="overflow:visible"
       id="Arrow2Mendq"
       refX="0"
       refY="0"
       orient="auto"
       inkscape:stockid="Arrow2Mendq">
      <path
         inkscape:connector-curvature="0"
         transform="scale(-0.6,-0.6)"
         d="M 8.7185878,4.0337352 -2.2072895,0.01601326 8.7185884,-4.0017078 c -1.7454984,2.3720609 -1.7354408,5.6174519 -6e-7,8.035443 z"
         style="fill:#666666;fill-rule:evenodd;stroke:#666666;stroke-width:0.625;stroke-linejoin:round"
         id="path5586" />
    </marker>
    <marker
       inkscape:stockid="Arrow1Mstartq"
       orient="auto"
       refY="0"
       refX="0"
       id="Arrow1Mstartq"
       style="overflow:visible">
      <path
         inkscape:connector-curvature="0"
         id="path7377"
         d="M 0,0 5,-5 -12.5,0 5,5 0,0 z"
         style="fill:#666666;fill-rule:evenodd;stroke:#666666;stroke-width:1pt"
         transform="matrix(0.4,0,0,0.4,4,0)" />
    </marker>
    <marker
       style="overflow:visible"
       id="Arrow2Mstartj"
       refX="0"
       refY="0"
       orient="auto"
       inkscape:stockid="Arrow2Mstartj">
      <path
         transform="scale(0.6,0.6)"
         d="M 8.7185878,4.0337352 -2.2072895,0.01601326 8.7185884,-4.0017078 c -1.7454984,2.3720609 -1.7354408,5.6174519 -6e-7,8.035443 z"
         style="fill:#666666;fill-rule:evenodd;stroke:#666666;stroke-width:0.625;stroke-linejoin:round"
         id="path8649"
         inkscape:connector-curvature="0" />
    </marker>
    <marker
       style="overflow:visible"
       id="Arrow2MstartR"
       refX="0"
       refY="0"
       orient="auto"
       inkscape:stockid="Arrow2MstartR">
      <path
         transform="scale(0.6,0.6)"
         d="M 8.7185878,4.0337352 -2.2072895,0.01601326 8.7185884,-4.0017078 c -1.7454984,2.3720609 -1.7354408,5.6174519 -6e-7,8.035443 z"
         style="fill:#666666;fill-rule:evenodd;stroke:#666666;stroke-width:0.625;stroke-linejoin:round"
         id="path8652"
         inkscape:connector-curvature="0" />
    </marker>
    <marker
       style="overflow:visible"
       id="Arrow2Mstart8"
       refX="0"
       refY="0"
       orient="auto"
       inkscape:stockid="Arrow2Mstart8">
      <path
         transform="scale(0.6,0.6)"
         d="M 8.7185878,4.0337352 -2.2072895,0.01601326 8.7185884,-4.0017078 c -1.7454984,2.3720609 -1.7354408,5.6174519 -6e-7,8.035443 z"
         style="fill:#666666;fill-rule:evenodd;stroke:#666666;stroke-width:0.625;stroke-linejoin:round"
         id="path8655"
         inkscape:connector-curvature="0" />
    </marker>
    <marker
       style="overflow:visible"
       id="Arrow2Mstart5"
       refX="0"
       refY="0"
       orient="auto"
       inkscape:stockid="Arrow2Mstart5">
      <path
         transform="scale(0.6,0.6)"
         d="M 8.7185878,4.0337352 -2.2072895,0.01601326 8.7185884,-4.0017078 c -1.7454984,2.3720609 -1.7354408,5.6174519 -6e-7,8.035443 z"
         style="fill:#666666;fill-rule:evenodd;stroke:#666666;stroke-width:0.625;stroke-linejoin:round"
         id="path8658"
         inkscape:connector-curvature="0" />
    </marker>
    <marker
       style="overflow:visible"
       id="Arrow2Mstartu"
       refX="0"
       refY="0"
       orient="auto"
       inkscape:stockid="Arrow2Mstartu">
      <path
         transform="scale(0.6,0.6)"
         d="M 8.7185878,4.0337352 -2.2072895,0.01601326 8.7185884,-4.0017078 c -1.7454984,2.3720609 -1.7354408,5.6174519 -6e-7,8.035443 z"
         style="fill:#666666;fill-rule:evenodd;stroke:#666666;stroke-width:0.625;stroke-linejoin:round"
         id="path8661"
         inkscape:connector-curvature="0" />
    </marker>
  </defs>
  <metadata
     id="metadata7">
    <rdf:RDF>
      <cc:Work
         rdf:about="">
        <dc:format>image/svg+xml</dc:format>
        <dc:type
           rdf:resource="http://purl.org/dc/dcmitype/StillImage" />
        <dc:title></dc:title>
      </cc:Work>
    </rdf:RDF>
  </metadata>
  <g
     transform="translate(0,-854.362)"
     id="layer1"
     inkscape:groupmode="layer"
     inkscape:label="Layer 1">
    <g
       id="g4951"
       transform="translate(0,90)">
      <g
         id="g3801"
         transform="matrix(0.5,0,0,0.5,79.72441,844.73708)">
        <rect
           transform="translate(0,62.362185)"
           y="51.023621"
           x="53.149605"
           height="70.866142"
           width="70.866142"
           id="rect3778"
           style="fill:none;stroke:#666666;stroke-width:3.54330707;stroke-linecap:round;stroke-linejoin:round;stroke-miterlimit:4;stroke-opacity:1;stroke-dasharray:none;stroke-dashoffset:0" />
        <path
           transform="matrix(0.34429876,0,0,0.34429876,34.850262,95.818436)"
           d="m 70.86614,51.023621 c 0,9.784572 -7.931963,17.716535 -17.716535,17.716535 -9.784573,0 -17.716536,-7.931963 -17.716536,-17.716535 0,-9.784573 7.931963,-17.716536 17.716536,-17.716536 9.784572,0 17.716535,7.931963 17.716535,17.716536 z"
           sodipodi:ry="17.716536"
           sodipodi:rx="17.716536"
           sodipodi:cy="51.023621"
           sodipodi:cx="53.149605"
           id="path3793"
           style="fill:#ffffff;stroke:#666666;stroke-width:10.29137325;stroke-linecap:round;stroke-linejoin:round;stroke-miterlimit:4;stroke-opacity:1;stroke-dasharray:none;stroke-dashoffset:0"
           sodipodi:type="arc" />
        <path
           sodipodi:type="arc"
           style="fill:#ffffff;stroke:#666666;stroke-width:10.29137325;stroke-linecap:round;stroke-linejoin:round;stroke-miterlimit:4;stroke-opacity:1;stroke-dasharray:none;stroke-dashoffset:0"
           id="path3795"
           sodipodi:cx="53.149605"
           sodipodi:cy="51.023621"
           sodipodi:rx="17.716536"
           sodipodi:ry="17.716536"
           d="m 70.86614,51.023621 c 0,9.784572 -7.931963,17.716535 -17.716535,17.716535 -9.784573,0 -17.716536,-7.931963 -17.716536,-17.716535 0,-9.784573 7.931963,-17.716536 17.716536,-17.716536 9.784572,0 17.716535,7.931963 17.716535,17.716536 z"
           transform="matrix(0.34429876,0,0,0.34429876,105.86812,95.818436)" />
        <path
           sodipodi:type="arc"
           style="fill:#ffffff;stroke:#666666;stroke-width:10.29137325;stroke-linecap:round;stroke-linejoin:round;stroke-miterlimit:4;stroke-opacity:1;stroke-dasharray:none;stroke-dashoffset:0"
           id="path3797"
           sodipodi:cx="53.149605"
           sodipodi:cy="51.023621"
           sodipodi:rx="17.716536"
           sodipodi:ry="17.716536"
           d="m 70.86614,51.023621 c 0,9.784572 -7.931963,17.716535 -17.716535,17.716535 -9.784573,0 -17.716536,-7.931963 -17.716536,-17.716535 0,-9.784573 7.931963,-17.716536 17.716536,-17.716536 9.784572,0 17.716535,7.931963 17.716535,17.716536 z"
           transform="matrix(0.34429876,0,0,0.34429876,34.850262,166.80058)" />
        <path
           transform="matrix(0.34429876,0,0,0.34429876,105.77883,166.80058)"
           d="m 70.86614,51.023621 c 0,9.784572 -7.931963,17.716535 -17.716535,17.716535 -9.784573,0 -17.716536,-7.931963 -17.716536,-17.716535 0,-9.784573 7.931963,-17.716536 17.716536,-17.716536 9.784572,0 17.716535,7.931963 17.716535,17.716536 z"
           sodipodi:ry="17.716536"
           sodipodi:rx="17.716536"
           sodipodi:cy="51.023621"
           sodipodi:cx="53.149605"
           id="path3799"
           style="fill:#ffffff;stroke:#666666;stroke-width:10.29137325;stroke-linecap:round;stroke-linejoin:round;stroke-miterlimit:4;stroke-opacity:1;stroke-dasharray:none;stroke-dashoffset:0"
           sodipodi:type="arc" />
      </g>
      <g
         id="g3808"
         transform="matrix(0.5,0,0,0.5,274.78727,818.19629)">
        <rect
           style="fill:none;stroke:#666666;stroke-width:3.54330707;stroke-linecap:round;stroke-linejoin:round;stroke-miterlimit:4;stroke-opacity:1;stroke-dasharray:none;stroke-dashoffset:0"
           id="rect3810"
           width="70.866142"
           height="70.866142"
           x="53.149605"
           y="51.023621"
           transform="translate(0,62.362185)" />
        <path
           sodipodi:type="arc"
           style="fill:#ffffff;stroke:#666666;stroke-width:10.29137325;stroke-linecap:round;stroke-linejoin:round;stroke-miterlimit:4;stroke-opacity:1;stroke-dasharray:none;stroke-dashoffset:0"
           id="path3812"
           sodipodi:cx="53.149605"
           sodipodi:cy="51.023621"
           sodipodi:rx="17.716536"
           sodipodi:ry="17.716536"
           d="m 70.86614,51.023621 c 0,9.784572 -7.931963,17.716535 -17.716535,17.716535 -9.784573,0 -17.716536,-7.931963 -17.716536,-17.716535 0,-9.784573 7.931963,-17.716536 17.716536,-17.716536 9.784572,0 17.716535,7.931963 17.716535,17.716536 z"
           transform="matrix(0.34429876,0,0,0.34429876,34.850262,95.818436)" />
        <path
           transform="matrix(0.34429876,0,0,0.34429876,105.86812,95.818436)"
           d="m 70.86614,51.023621 c 0,9.784572 -7.931963,17.716535 -17.716535,17.716535 -9.784573,0 -17.716536,-7.931963 -17.716536,-17.716535 0,-9.784573 7.931963,-17.716536 17.716536,-17.716536 9.784572,0 17.716535,7.931963 17.716535,17.716536 z"
           sodipodi:ry="17.716536"
           sodipodi:rx="17.716536"
           sodipodi:cy="51.023621"
           sodipodi:cx="53.149605"
           id="path3814"
           style="fill:#ffffff;stroke:#666666;stroke-width:10.29137325;stroke-linecap:round;stroke-linejoin:round;stroke-miterlimit:4;stroke-opacity:1;stroke-dasharray:none;stroke-dashoffset:0"
           sodipodi:type="arc" />
        <path
           transform="matrix(0.34429876,0,0,0.34429876,34.850262,166.80058)"
           d="m 70.86614,51.023621 c 0,9.784572 -7.931963,17.716535 -17.716535,17.716535 -9.784573,0 -17.716536,-7.931963 -17.716536,-17.716535 0,-9.784573 7.931963,-17.716536 17.716536,-17.716536 9.784572,0 17.716535,7.931963 17.716535,17.716536 z"
           sodipodi:ry="17.716536"
           sodipodi:rx="17.716536"
           sodipodi:cy="51.023621"
           sodipodi:cx="53.149605"
           id="path3816"
           style="fill:#ffffff;stroke:#666666;stroke-width:10.29137325;stroke-linecap:round;stroke-linejoin:round;stroke-miterlimit:4;stroke-opacity:1;stroke-dasharray:none;stroke-dashoffset:0"
           sodipodi:type="arc" />
        <path
           sodipodi:type="arc"
           style="fill:#ffffff;stroke:#666666;stroke-width:10.29137325;stroke-linecap:round;stroke-linejoin:round;stroke-miterlimit:4;stroke-opacity:1;stroke-dasharray:none;stroke-dashoffset:0"
           id="path3818"
           sodipodi:cx="53.149605"
           sodipodi:cy="51.023621"
           sodipodi:rx="17.716536"
           sodipodi:ry="17.716536"
           d="m 70.86614,51.023621 c 0,9.784572 -7.931963,17.716535 -17.716535,17.716535 -9.784573,0 -17.716536,-7.931963 -17.716536,-17.716535 0,-9.784573 7.931963,-17.716536 17.716536,-17.716536 9.784572,0 17.716535,7.931963 17.716535,17.716536 z"
           transform="matrix(0.34429876,0,0,0.34429876,105.77883,166.80058)" />
      </g>
      <path
         sodipodi:nodetypes="ccc"
         inkscape:connector-curvature="0"
         id="path5634"
         d="m 110.813,906.16732 13.29809,13.1696 0.0856,-0.0984"
         style="fill:#666666;stroke:#666666;stroke-width:1.77165353;stroke-linecap:round;stroke-linejoin:round;stroke-miterlimit:4;stroke-opacity:1;stroke-dasharray:none;marker-start:url(#Arrow2Mstart5);marker-end:none" />
      <path
         sodipodi:nodetypes="cc"
         style="fill:none;stroke:#666666;stroke-width:1.77165353;stroke-linecap:round;stroke-linejoin:round;stroke-miterlimit:4;stroke-opacity:1;stroke-dasharray:none;marker-start:url(#Arrow2MstartR);marker-end:none"
         d="m 332.37734,879.72323 -13.29873,12.9405"
         id="path7429"
         inkscape:connector-curvature="0"
         inkscape:transform-center-x="-7.7015746"
         inkscape:transform-center-y="-7.4500987" />
      <path
         style="fill:#666666;stroke:#666666;stroke-width:1.77165353;stroke-linecap:round;stroke-linejoin:round;stroke-miterlimit:4;stroke-opacity:1;stroke-dasharray:none;marker-start:url(#Arrow2Mstart8);marker-end:none"
         d="m 315.68805,893.35121 -191.40544,25.9857 0,0"
         id="path7431"
         inkscape:connector-curvature="0"
         sodipodi:nodetypes="ccc" />
      <text
         xml:space="preserve"
         style="font-size:12px;font-style:normal;font-weight:normal;line-height:125%;letter-spacing:0px;word-spacing:0px;fill:#666666;fill-opacity:1;stroke:none;font-family:Sans"
         x="97.440941"
         y="895.88672"
         id="text7433"
         sodipodi:linespacing="125%"><tspan
           sodipodi:role="line"
           id="tspan7435"
           x="97.440941"
           y="895.88672">1</tspan></text>
      <text
         xml:space="preserve"
         style="font-size:12px;font-style:normal;font-weight:normal;line-height:125%;letter-spacing:0px;word-spacing:0px;fill:#666666;fill-opacity:1;stroke:none;font-family:Sans"
         x="143.50394"
         y="895.88672"
         id="text7437"
         sodipodi:linespacing="125%"><tspan
           sodipodi:role="line"
           id="tspan7439"
           x="143.50394"
           y="895.88672">2</tspan></text>
      <text
         xml:space="preserve"
         style="font-size:12px;font-style:normal;font-weight:normal;line-height:125%;letter-spacing:0px;word-spacing:0px;fill:#666666;fill-opacity:1;stroke:none;font-family:Sans"
         x="143.75259"
         y="950.24677"
         id="text7441"
         sodipodi:linespacing="125%"><tspan
           sodipodi:role="line"
           id="tspan7443"
           x="143.75259"
           y="950.24677">3</tspan></text>
      <text
         xml:space="preserve"
         style="font-size:12px;font-style:normal;font-weight:normal;line-height:125%;letter-spacing:0px;word-spacing:0px;fill:#666666;fill-opacity:1;stroke:none;font-family:Sans"
         x="97.39193"
         y="950.1795"
         id="text7445"
         sodipodi:linespacing="125%"><tspan
           sodipodi:role="line"
           id="tspan7447"
           x="97.39193"
           y="950.1795">4</tspan></text>
      <text
         xml:space="preserve"
         style="font-size:12px;font-style:normal;font-weight:normal;line-height:125%;letter-spacing:0px;word-spacing:0px;fill:#666666;fill-opacity:1;stroke:none;font-family:Sans"
         x="213.12886"
         y="897.72375"
         id="text7449"
         sodipodi:linespacing="125%"><tspan
           sodipodi:role="line"
           id="tspan7451"
           x="213.12886"
           y="897.72375">R<tspan
   style="font-size:65.00091553%;baseline-shift:sub"
   id="tspan5582">kl</tspan></tspan></text>
      <text
         xml:space="preserve"
         style="font-size:12px;font-style:normal;font-weight:normal;line-height:125%;letter-spacing:0px;word-spacing:0px;fill:#666666;fill-opacity:1;stroke:none;font-family:Sans"
         x="120.05172"
         y="954.67163"
         id="text7453"
         sodipodi:linespacing="125%"><tspan
           sodipodi:role="line"
           id="tspan7455"
           x="120.05172"
           y="954.67163">k</tspan></text>
      <text
         xml:space="preserve"
         style="font-size:12px;font-style:normal;font-weight:normal;line-height:125%;letter-spacing:0px;word-spacing:0px;fill:#666666;fill-opacity:1;stroke:none;font-family:Sans"
         x="317.44662"
         y="928.0968"
         id="text7457"
         sodipodi:linespacing="125%"><tspan
           sodipodi:role="line"
           id="tspan7459"
           x="317.44662"
           y="928.0968">l</tspan></text>
      <text
         xml:space="preserve"
         x="112.01305"
         y="923.43768"
         id="text7461"
         style="font-size:12px;fill:#666666"><tspan
           sodipodi:role="line"
           id="tspan7463"
           x="112.01305"
           y="923.43768">r<tspan
   style="font-size:65.00091553%;baseline-shift:sub"
   id="tspan6140">i</tspan></tspan></text>
      <text
         xml:space="preserve"
         style="font-size:12px;font-style:normal;font-weight:normal;line-height:125%;letter-spacing:0px;word-spacing:0px;fill:#666666;fill-opacity:1;stroke:none;font-family:Sans"
         x="324.05276"
         y="896.88678"
         id="text7465"
         sodipodi:linespacing="125%"><tspan
           sodipodi:role="line"
           id="tspan7467"
           x="324.05276"
           y="896.88678">r<tspan
   id="tspan8833"
   style="font-size:65.00091553%;baseline-shift:sub">j</tspan></tspan></text>
      <text
         sodipodi:linespacing="125%"
         id="text7475"
         y="869.06024"
         x="292.86096"
         style="font-size:12px;font-style:normal;font-weight:normal;line-height:125%;letter-spacing:0px;word-spacing:0px;fill:#666666;fill-opacity:1;stroke:none;font-family:Sans"
         xml:space="preserve"><tspan
           y="869.06024"
           x="292.86096"
           id="tspan7477"
           sodipodi:role="line">1</tspan></text>
      <text
         sodipodi:linespacing="125%"
         id="text7479"
         y="869.06024"
         x="338.92395"
         style="font-size:12px;font-style:normal;font-weight:normal;line-height:125%;letter-spacing:0px;word-spacing:0px;fill:#666666;fill-opacity:1;stroke:none;font-family:Sans"
         xml:space="preserve"><tspan
           y="869.06024"
           x="338.92395"
           id="tspan7481"
           sodipodi:role="line">2</tspan></text>
      <text
         sodipodi:linespacing="125%"
         id="text7483"
         y="923.42023"
         x="339.17261"
         style="font-size:12px;font-style:normal;font-weight:normal;line-height:125%;letter-spacing:0px;word-spacing:0px;fill:#666666;fill-opacity:1;stroke:none;font-family:Sans"
         xml:space="preserve"><tspan
           y="923.42023"
           x="339.17261"
           id="tspan7485"
           sodipodi:role="line">3</tspan></text>
      <text
         sodipodi:linespacing="125%"
         id="text7487"
         y="923.35303"
         x="292.81195"
         style="font-size:12px;font-style:normal;font-weight:normal;line-height:125%;letter-spacing:0px;word-spacing:0px;fill:#666666;fill-opacity:1;stroke:none;font-family:Sans"
         xml:space="preserve"><tspan
           y="923.35303"
           x="292.81195"
           id="tspan7489"
           sodipodi:role="line">4</tspan></text>
      <text
         xml:space="preserve"
         style="font-size:12px;font-style:normal;font-weight:normal;line-height:125%;letter-spacing:0px;word-spacing:0px;fill:#666666;fill-opacity:1;stroke:none;font-family:Sans"
         x="239.35962"
         y="915.92334"
         id="text7491"
         sodipodi:linespacing="125%"><tspan
           sodipodi:role="line"
           id="tspan7493"
           x="239.35962"
           y="915.92334">θ</tspan></text>
      <path
         sodipodi:type="arc"
         style="fill:none;stroke:#666666;stroke-width:0.19131382;stroke-linecap:round;stroke-linejoin:round;stroke-miterlimit:4;stroke-dasharray:none;stroke-dashoffset:0"
         id="path7495"
         sodipodi:cx="375.59055"
         sodipodi:cy="109.48819"
         sodipodi:rx="10.023985"
         sodipodi:ry="20.430704"
         d="m 385.61451,109.52544 c -8e-4,0.89364 -0.0304,1.78621 -0.0885,2.67196 l -9.93546,-2.70921 z"
         transform="matrix(13.140304,0,0,-6.526187,-4811.177,1633.7789)"
         sodipodi:start="0.0018231012"
         sodipodi:end="0.13299676" />
    </g>
    <g
       id="g5000"
       transform="translate(0,-124)">
      <g
         id="g7526"
         transform="matrix(0.5,0,0,0.5,79.72441,862.73708)">
        <rect
           style="fill:none;stroke:#666666;stroke-width:3.54330707;stroke-linecap:round;stroke-linejoin:round;stroke-miterlimit:4;stroke-opacity:1;stroke-dasharray:none;stroke-dashoffset:0"
           id="rect7499"
           width="70.866142"
           height="70.866142"
           x="53.149605"
           y="273.3858" />
        <path
           sodipodi:type="arc"
           style="fill:#666666;stroke:#666666;stroke-width:10.29137325;stroke-linecap:round;stroke-linejoin:round;stroke-miterlimit:4;stroke-opacity:1;stroke-dasharray:none;stroke-dashoffset:0"
           id="path7501"
           sodipodi:cx="53.149605"
           sodipodi:cy="51.023621"
           sodipodi:rx="17.716536"
           sodipodi:ry="17.716536"
           d="m 70.86614,51.023621 c 0,9.784572 -7.931963,17.716535 -17.716535,17.716535 -9.784573,0 -17.716536,-7.931963 -17.716536,-17.716535 0,-9.784573 7.931963,-17.716536 17.716536,-17.716536 9.784572,0 17.716535,7.931963 17.716535,17.716536 z"
           transform="matrix(0.34429876,0,0,0.34429876,34.850262,255.81844)" />
        <path
           transform="matrix(0.34429876,0,0,0.34429876,105.86812,255.81844)"
           d="m 70.86614,51.023621 c 0,9.784572 -7.931963,17.716535 -17.716535,17.716535 -9.784573,0 -17.716536,-7.931963 -17.716536,-17.716535 0,-9.784573 7.931963,-17.716536 17.716536,-17.716536 9.784572,0 17.716535,7.931963 17.716535,17.716536 z"
           sodipodi:ry="17.716536"
           sodipodi:rx="17.716536"
           sodipodi:cy="51.023621"
           sodipodi:cx="53.149605"
           id="path7503"
           style="fill:#ffffff;stroke:#666666;stroke-width:10.29137325;stroke-linecap:round;stroke-linejoin:round;stroke-miterlimit:4;stroke-opacity:1;stroke-dasharray:none;stroke-dashoffset:0"
           sodipodi:type="arc" />
        <path
           transform="matrix(0.34429876,0,0,0.34429876,34.850262,326.80058)"
           d="m 70.86614,51.023621 c 0,9.784572 -7.931963,17.716535 -17.716535,17.716535 -9.784573,0 -17.716536,-7.931963 -17.716536,-17.716535 0,-9.784573 7.931963,-17.716536 17.716536,-17.716536 9.784572,0 17.716535,7.931963 17.716535,17.716536 z"
           sodipodi:ry="17.716536"
           sodipodi:rx="17.716536"
           sodipodi:cy="51.023621"
           sodipodi:cx="53.149605"
           id="path7505"
           style="fill:#ffffff;stroke:#666666;stroke-width:10.29137325;stroke-linecap:round;stroke-linejoin:round;stroke-miterlimit:4;stroke-opacity:1;stroke-dasharray:none;stroke-dashoffset:0"
           sodipodi:type="arc" />
        <path
           sodipodi:type="arc"
           style="fill:#666666;stroke:#666666;stroke-width:10.29137325;stroke-linecap:round;stroke-linejoin:round;stroke-miterlimit:4;stroke-opacity:1;stroke-dasharray:none;stroke-dashoffset:0"
           id="path7507"
           sodipodi:cx="53.149605"
           sodipodi:cy="51.023621"
           sodipodi:rx="17.716536"
           sodipodi:ry="17.716536"
           d="m 70.86614,51.023621 c 0,9.784572 -7.931963,17.716535 -17.716535,17.716535 -9.784573,0 -17.716536,-7.931963 -17.716536,-17.716535 0,-9.784573 7.931963,-17.716536 17.716536,-17.716536 9.784572,0 17.716535,7.931963 17.716535,17.716536 z"
           transform="matrix(0.34429876,0,0,0.34429876,105.77883,326.80058)" />
      </g>
      <g
         id="g7538"
         transform="matrix(0.5,0,0,0.5,79.72441,862.73708)">
        <rect
           y="273.3858"
           x="443.1496"
           height="70.866142"
           width="70.866142"
           id="rect7511"
           style="fill:none;stroke:#666666;stroke-width:3.54330707;stroke-linecap:round;stroke-linejoin:round;stroke-miterlimit:4;stroke-opacity:1;stroke-dasharray:none;stroke-dashoffset:0" />
        <path
           transform="matrix(0.34429876,0,0,0.34429876,424.85026,255.81844)"
           d="m 70.86614,51.023621 c 0,9.784572 -7.931963,17.716535 -17.716535,17.716535 -9.784573,0 -17.716536,-7.931963 -17.716536,-17.716535 0,-9.784573 7.931963,-17.716536 17.716536,-17.716536 9.784572,0 17.716535,7.931963 17.716535,17.716536 z"
           sodipodi:ry="17.716536"
           sodipodi:rx="17.716536"
           sodipodi:cy="51.023621"
           sodipodi:cx="53.149605"
           id="path7513"
           style="fill:#ffffff;stroke:#666666;stroke-width:10.29137325;stroke-linecap:round;stroke-linejoin:round;stroke-miterlimit:4;stroke-opacity:1;stroke-dasharray:none;stroke-dashoffset:0"
           sodipodi:type="arc" />
        <path
           sodipodi:type="arc"
           style="fill:#666666;stroke:#666666;stroke-width:10.29137325;stroke-linecap:round;stroke-linejoin:round;stroke-miterlimit:4;stroke-opacity:1;stroke-dasharray:none;stroke-dashoffset:0"
           id="path7515"
           sodipodi:cx="53.149605"
           sodipodi:cy="51.023621"
           sodipodi:rx="17.716536"
           sodipodi:ry="17.716536"
           d="m 70.86614,51.023621 c 0,9.784572 -7.931963,17.716535 -17.716535,17.716535 -9.784573,0 -17.716536,-7.931963 -17.716536,-17.716535 0,-9.784573 7.931963,-17.716536 17.716536,-17.716536 9.784572,0 17.716535,7.931963 17.716535,17.716536 z"
           transform="matrix(0.34429876,0,0,0.34429876,495.86812,255.81844)" />
        <path
           sodipodi:type="arc"
           style="fill:#666666;stroke:#666666;stroke-width:10.29137325;stroke-linecap:round;stroke-linejoin:round;stroke-miterlimit:4;stroke-opacity:1;stroke-dasharray:none;stroke-dashoffset:0"
           id="path7517"
           sodipodi:cx="53.149605"
           sodipodi:cy="51.023621"
           sodipodi:rx="17.716536"
           sodipodi:ry="17.716536"
           d="m 70.86614,51.023621 c 0,9.784572 -7.931963,17.716535 -17.716535,17.716535 -9.784573,0 -17.716536,-7.931963 -17.716536,-17.716535 0,-9.784573 7.931963,-17.716536 17.716536,-17.716536 9.784572,0 17.716535,7.931963 17.716535,17.716536 z"
           transform="matrix(0.34429876,0,0,0.34429876,424.85026,326.80058)" />
        <path
           transform="matrix(0.34429876,0,0,0.34429876,495.77883,326.80058)"
           d="m 70.86614,51.023621 c 0,9.784572 -7.931963,17.716535 -17.716535,17.716535 -9.784573,0 -17.716536,-7.931963 -17.716536,-17.716535 0,-9.784573 7.931963,-17.716536 17.716536,-17.716536 9.784572,0 17.716535,7.931963 17.716535,17.716536 z"
           sodipodi:ry="17.716536"
           sodipodi:rx="17.716536"
           sodipodi:cy="51.023621"
           sodipodi:cx="53.149605"
           id="path7519"
           style="fill:#ffffff;stroke:#666666;stroke-width:10.29137325;stroke-linecap:round;stroke-linejoin:round;stroke-miterlimit:4;stroke-opacity:1;stroke-dasharray:none;stroke-dashoffset:0"
           sodipodi:type="arc" />
      </g>
      <path
         style="fill:#666666;stroke:#666666;stroke-width:1.77165353;stroke-linecap:round;stroke-linejoin:round;stroke-miterlimit:4;stroke-opacity:1;stroke-dasharray:none;marker-start:url(#Arrow2Mstartj);marker-end:none"
         d="m 124.01671,1026.7342 0.045,-20.9101 0,0"
         id="path7545"
         inkscape:connector-curvature="0" />
      <path
         inkscape:connector-curvature="0"
         id="path7547"
         d="m 319.0508,1007.6168 0.0449,20.9101 0,0"
         style="fill:#666666;stroke:#666666;stroke-width:1.77165353;stroke-linecap:round;stroke-linejoin:round;stroke-miterlimit:4;stroke-opacity:1;stroke-dasharray:none;marker-start:url(#Arrow2Mstartu);marker-end:none" />
    </g>
    <text
       sodipodi:linespacing="125%"
       id="text5631"
       y="911.20453"
       x="70.866142"
       style="font-size:14px;font-style:normal;font-variant:normal;font-weight:normal;font-stretch:normal;text-align:start;line-height:125%;letter-spacing:0px;word-spacing:0px;writing-mode:lr-tb;text-anchor:start;fill:#666666;fill-opacity:1;stroke:none;font-family:Open Sans;-inkscape-font-specification:Open Sans"
       xml:space="preserve"><tspan
         style="font-size:14px;fill:#666666"
         y="911.20453"
         x="70.866142"
         id="tspan5633"
         sodipodi:role="line">(a)</tspan></text>
    <text
       xml:space="preserve"
       style="font-size:14px;font-style:normal;font-variant:normal;font-weight:normal;font-stretch:normal;text-align:start;line-height:125%;letter-spacing:0px;word-spacing:0px;writing-mode:lr-tb;text-anchor:start;fill:#666666;fill-opacity:1;stroke:none;font-family:Open Sans;-inkscape-font-specification:Open Sans"
       x="70.866142"
       y="1026.6455"
       id="text3344"
       sodipodi:linespacing="125%"><tspan
         sodipodi:role="line"
         id="tspan3346"
         x="70.866142"
         y="1026.6455"
         style="font-size:14px;fill:#666666">(b)</tspan></text>
  </g>
</svg>
