<?xml version="1.0" encoding="utf-8" standalone="no"?>
<!DOCTYPE svg PUBLIC "-//W3C//DTD SVG 1.1//EN"
  "http://www.w3.org/Graphics/SVG/1.1/DTD/svg11.dtd">
<!-- Created with matplotlib (http://matplotlib.org/) -->
<svg height="237pt" version="1.1" viewBox="0 0 316 237" width="316pt" xmlns="http://www.w3.org/2000/svg" xmlns:xlink="http://www.w3.org/1999/xlink">
 <defs>
  <style type="text/css">
*{stroke-linecap:butt;stroke-linejoin:round;}
  </style>
 </defs>
 <g id="figure_1">
  <g id="patch_1">
   <path d="
M0 237.6
L316.8 237.6
L316.8 0
L0 0
z
" style="fill:#ffffff;"/>
  </g>
  <g id="axes_1">
   <g id="patch_2">
    <path d="
M47.52 201.96
L269.28 201.96
L269.28 35.64
L47.52 35.64
z
" style="fill:#ffffff;"/>
   </g>
   <g id="line2d_1">
    <path clip-path="url(#pd34d341f16)" d="
M47.52 201.158
L49.76 201.139
L52 201.119
L54.24 201.098
L56.48 201.075
L58.72 201.051
L60.96 201.025
L63.2 200.997
L65.44 200.967
L67.68 200.936
L69.92 200.901
L72.16 200.864
L74.4 200.825
L76.64 200.782
L78.88 200.735
L81.12 200.685
L83.36 200.63
L85.6 200.57
L87.84 200.505
L90.08 200.433
L92.32 200.354
L94.56 200.267
L96.8 200.17
L99.04 200.063
L101.28 199.944
L103.52 199.81
L105.76 199.66
L108 199.491
L110.24 199.298
L112.48 199.079
L114.72 198.827
L116.96 198.537
L119.2 198.199
L121.44 197.804
L123.68 197.337
L125.92 196.782
L128.16 196.115
L130.4 195.305
L132.64 194.311
L134.88 193.076
L137.12 191.52
L139.36 189.535
L141.6 186.967
L143.84 183.598
L146.08 179.128
L148.32 173.161
L150.56 165.219
L152.8 154.848
L155.04 141.874
L157.28 126.772
L159.52 110.828
L161.76 95.7257
L164 82.7518
L166.24 72.3809
L168.48 64.4389
L170.72 58.472
L172.96 54.0025
L175.2 50.6332
L177.44 48.0645
L179.68 46.0797
L181.92 44.5244
L184.16 43.289
L186.4 42.2948
L188.64 41.4849
L190.88 40.8178
L193.12 40.2626
L195.36 39.7962
L197.6 39.4009
L199.84 39.0632
L202.08 38.7727
L204.32 38.521
L206.56 38.3016
L208.8 38.1093
L211.04 37.9398
L213.28 37.7897
L215.52 37.6561
L217.76 37.5368
L220 37.4297
L222.24 37.3334
L224.48 37.2463
L226.72 37.1673
L228.96 37.0955
L231.2 37.03
L233.44 36.9701
L235.68 36.9152
L237.92 36.8647
L240.16 36.8182
L242.4 36.7753
L244.64 36.7355
L246.88 36.6987
L249.12 36.6645
L251.36 36.6326
L253.6 36.6029
L255.84 36.5752
L258.08 36.5493
L260.32 36.525
L262.56 36.5022
L264.8 36.4808
L267.04 36.4606
L269.28 36.4416" style="fill:none;stroke:#0000ff;stroke-linecap:square;stroke-width:0.5;"/>
   </g>
   <g id="matplotlib.axis_1">
    <g id="xtick_1">
     <g id="line2d_2">
      <defs>
       <path d="
M0 0
L0 -3" id="mcb9445f438" style="stroke:#666666;stroke-width:0.3;"/>
      </defs>
      <g>
       <use style="fill:#666666;stroke:#666666;stroke-width:0.3;" x="47.52" xlink:href="#mcb9445f438" y="201.96"/>
      </g>
     </g>
     <g id="line2d_3">
      <defs>
       <path d="
M0 0
L0 3" id="mf82cd4f15c" style="stroke:#666666;stroke-width:0.3;"/>
      </defs>
      <g>
       <use style="fill:#666666;stroke:#666666;stroke-width:0.3;" x="47.52" xlink:href="#mf82cd4f15c" y="35.64"/>
      </g>
     </g>
     <g id="text_1">
      <!-- −1.0 -->
      <defs>
       <path d="
M10.5938 35.5
L73.1875 35.5
L73.1875 27.2031
L10.5938 27.2031
z
" id="BitstreamVeraSans-Roman-2212"/>
       <path d="
M31.7812 66.4062
Q24.1719 66.4062 20.3281 58.9062
Q16.5 51.4219 16.5 36.375
Q16.5 21.3906 20.3281 13.8906
Q24.1719 6.39062 31.7812 6.39062
Q39.4531 6.39062 43.2812 13.8906
Q47.125 21.3906 47.125 36.375
Q47.125 51.4219 43.2812 58.9062
Q39.4531 66.4062 31.7812 66.4062
M31.7812 74.2188
Q44.0469 74.2188 50.5156 64.5156
Q56.9844 54.8281 56.9844 36.375
Q56.9844 17.9688 50.5156 8.26562
Q44.0469 -1.42188 31.7812 -1.42188
Q19.5312 -1.42188 13.0625 8.26562
Q6.59375 17.9688 6.59375 36.375
Q6.59375 54.8281 13.0625 64.5156
Q19.5312 74.2188 31.7812 74.2188" id="BitstreamVeraSans-Roman-30"/>
       <path d="
M12.4062 8.29688
L28.5156 8.29688
L28.5156 63.9219
L10.9844 60.4062
L10.9844 69.3906
L28.4219 72.9062
L38.2812 72.9062
L38.2812 8.29688
L54.3906 8.29688
L54.3906 0
L12.4062 0
z
" id="BitstreamVeraSans-Roman-31"/>
       <path d="
M10.6875 12.4062
L21 12.4062
L21 0
L10.6875 0
z
" id="BitstreamVeraSans-Roman-2e"/>
      </defs>
      <g style="fill:#666666;" transform="translate(37.36828125 212.79859375)scale(0.09 -0.09)">
       <use xlink:href="#BitstreamVeraSans-Roman-2212"/>
       <use x="83.7890625" xlink:href="#BitstreamVeraSans-Roman-31"/>
       <use x="147.412109375" xlink:href="#BitstreamVeraSans-Roman-2e"/>
       <use x="179.19921875" xlink:href="#BitstreamVeraSans-Roman-30"/>
      </g>
     </g>
    </g>
    <g id="xtick_2">
     <g id="line2d_4">
      <g>
       <use style="fill:#666666;stroke:#666666;stroke-width:0.3;" x="102.96" xlink:href="#mcb9445f438" y="201.96"/>
      </g>
     </g>
     <g id="line2d_5">
      <g>
       <use style="fill:#666666;stroke:#666666;stroke-width:0.3;" x="102.96" xlink:href="#mf82cd4f15c" y="35.64"/>
      </g>
     </g>
     <g id="text_2">
      <!-- −0.5 -->
      <defs>
       <path d="
M10.7969 72.9062
L49.5156 72.9062
L49.5156 64.5938
L19.8281 64.5938
L19.8281 46.7344
Q21.9688 47.4688 24.1094 47.8281
Q26.2656 48.1875 28.4219 48.1875
Q40.625 48.1875 47.75 41.5
Q54.8906 34.8125 54.8906 23.3906
Q54.8906 11.625 47.5625 5.09375
Q40.2344 -1.42188 26.9062 -1.42188
Q22.3125 -1.42188 17.5469 -0.640625
Q12.7969 0.140625 7.71875 1.70312
L7.71875 11.625
Q12.1094 9.23438 16.7969 8.0625
Q21.4844 6.89062 26.7031 6.89062
Q35.1562 6.89062 40.0781 11.3281
Q45.0156 15.7656 45.0156 23.3906
Q45.0156 31 40.0781 35.4375
Q35.1562 39.8906 26.7031 39.8906
Q22.75 39.8906 18.8125 39.0156
Q14.8906 38.1406 10.7969 36.2812
z
" id="BitstreamVeraSans-Roman-35"/>
      </defs>
      <g style="fill:#666666;" transform="translate(92.9025 212.79859375)scale(0.09 -0.09)">
       <use xlink:href="#BitstreamVeraSans-Roman-2212"/>
       <use x="83.7890625" xlink:href="#BitstreamVeraSans-Roman-30"/>
       <use x="147.412109375" xlink:href="#BitstreamVeraSans-Roman-2e"/>
       <use x="179.19921875" xlink:href="#BitstreamVeraSans-Roman-35"/>
      </g>
     </g>
    </g>
    <g id="xtick_3">
     <g id="line2d_6">
      <g>
       <use style="fill:#666666;stroke:#666666;stroke-width:0.3;" x="158.4" xlink:href="#mcb9445f438" y="201.96"/>
      </g>
     </g>
     <g id="line2d_7">
      <g>
       <use style="fill:#666666;stroke:#666666;stroke-width:0.3;" x="158.4" xlink:href="#mf82cd4f15c" y="35.64"/>
      </g>
     </g>
     <g id="text_3">
      <!-- 0.0 -->
      <g style="fill:#666666;" transform="translate(151.839140625 212.79859375)scale(0.09 -0.09)">
       <use xlink:href="#BitstreamVeraSans-Roman-30"/>
       <use x="63.623046875" xlink:href="#BitstreamVeraSans-Roman-2e"/>
       <use x="95.41015625" xlink:href="#BitstreamVeraSans-Roman-30"/>
      </g>
     </g>
    </g>
    <g id="xtick_4">
     <g id="line2d_8">
      <g>
       <use style="fill:#666666;stroke:#666666;stroke-width:0.3;" x="213.84" xlink:href="#mcb9445f438" y="201.96"/>
      </g>
     </g>
     <g id="line2d_9">
      <g>
       <use style="fill:#666666;stroke:#666666;stroke-width:0.3;" x="213.84" xlink:href="#mf82cd4f15c" y="35.64"/>
      </g>
     </g>
     <g id="text_4">
      <!-- 0.5 -->
      <g style="fill:#666666;" transform="translate(207.373359375 212.79859375)scale(0.09 -0.09)">
       <use xlink:href="#BitstreamVeraSans-Roman-30"/>
       <use x="63.623046875" xlink:href="#BitstreamVeraSans-Roman-2e"/>
       <use x="95.41015625" xlink:href="#BitstreamVeraSans-Roman-35"/>
      </g>
     </g>
    </g>
    <g id="xtick_5">
     <g id="line2d_10">
      <g>
       <use style="fill:#666666;stroke:#666666;stroke-width:0.3;" x="269.28" xlink:href="#mcb9445f438" y="201.96"/>
      </g>
     </g>
     <g id="line2d_11">
      <g>
       <use style="fill:#666666;stroke:#666666;stroke-width:0.3;" x="269.28" xlink:href="#mf82cd4f15c" y="35.64"/>
      </g>
     </g>
     <g id="text_5">
      <!-- 1.0 -->
      <g style="fill:#666666;" transform="translate(262.91671875 212.79859375)scale(0.09 -0.09)">
       <use xlink:href="#BitstreamVeraSans-Roman-31"/>
       <use x="63.623046875" xlink:href="#BitstreamVeraSans-Roman-2e"/>
       <use x="95.41015625" xlink:href="#BitstreamVeraSans-Roman-30"/>
      </g>
     </g>
    </g>
    <g id="text_6">
     <!-- driver polarization -->
     <defs>
      <path id="BitstreamVeraSans-Roman-20"/>
      <path d="
M54.8906 33.0156
L54.8906 0
L45.9062 0
L45.9062 32.7188
Q45.9062 40.4844 42.875 44.3281
Q39.8438 48.1875 33.7969 48.1875
Q26.5156 48.1875 22.3125 43.5469
Q18.1094 38.9219 18.1094 30.9062
L18.1094 0
L9.07812 0
L9.07812 54.6875
L18.1094 54.6875
L18.1094 46.1875
Q21.3438 51.125 25.7031 53.5625
Q30.0781 56 35.7969 56
Q45.2188 56 50.0469 50.1719
Q54.8906 44.3438 54.8906 33.0156" id="BitstreamVeraSans-Roman-6e"/>
      <path d="
M34.2812 27.4844
Q23.3906 27.4844 19.1875 25
Q14.9844 22.5156 14.9844 16.5
Q14.9844 11.7188 18.1406 8.90625
Q21.2969 6.10938 26.7031 6.10938
Q34.1875 6.10938 38.7031 11.4062
Q43.2188 16.7031 43.2188 25.4844
L43.2188 27.4844
z

M52.2031 31.2031
L52.2031 0
L43.2188 0
L43.2188 8.29688
Q40.1406 3.32812 35.5469 0.953125
Q30.9531 -1.42188 24.3125 -1.42188
Q15.9219 -1.42188 10.9531 3.29688
Q6 8.01562 6 15.9219
Q6 25.1406 12.1719 29.8281
Q18.3594 34.5156 30.6094 34.5156
L43.2188 34.5156
L43.2188 35.4062
Q43.2188 41.6094 39.1406 45
Q35.0625 48.3906 27.6875 48.3906
Q23 48.3906 18.5469 47.2656
Q14.1094 46.1406 10.0156 43.8906
L10.0156 52.2031
Q14.9375 54.1094 19.5781 55.0469
Q24.2188 56 28.6094 56
Q40.4844 56 46.3438 49.8438
Q52.2031 43.7031 52.2031 31.2031" id="BitstreamVeraSans-Roman-61"/>
      <path d="
M30.6094 48.3906
Q23.3906 48.3906 19.1875 42.75
Q14.9844 37.1094 14.9844 27.2969
Q14.9844 17.4844 19.1562 11.8438
Q23.3438 6.20312 30.6094 6.20312
Q37.7969 6.20312 41.9844 11.8594
Q46.1875 17.5312 46.1875 27.2969
Q46.1875 37.0156 41.9844 42.7031
Q37.7969 48.3906 30.6094 48.3906
M30.6094 56
Q42.3281 56 49.0156 48.375
Q55.7188 40.7656 55.7188 27.2969
Q55.7188 13.875 49.0156 6.21875
Q42.3281 -1.42188 30.6094 -1.42188
Q18.8438 -1.42188 12.1719 6.21875
Q5.51562 13.875 5.51562 27.2969
Q5.51562 40.7656 12.1719 48.375
Q18.8438 56 30.6094 56" id="BitstreamVeraSans-Roman-6f"/>
      <path d="
M9.42188 75.9844
L18.4062 75.9844
L18.4062 0
L9.42188 0
z
" id="BitstreamVeraSans-Roman-6c"/>
      <path d="
M5.51562 54.6875
L48.1875 54.6875
L48.1875 46.4844
L14.4062 7.17188
L48.1875 7.17188
L48.1875 0
L4.29688 0
L4.29688 8.20312
L38.0938 47.5156
L5.51562 47.5156
z
" id="BitstreamVeraSans-Roman-7a"/>
      <path d="
M56.2031 29.5938
L56.2031 25.2031
L14.8906 25.2031
Q15.4844 15.9219 20.4844 11.0625
Q25.4844 6.20312 34.4219 6.20312
Q39.5938 6.20312 44.4531 7.46875
Q49.3125 8.73438 54.1094 11.2812
L54.1094 2.78125
Q49.2656 0.734375 44.1875 -0.34375
Q39.1094 -1.42188 33.8906 -1.42188
Q20.7969 -1.42188 13.1562 6.1875
Q5.51562 13.8125 5.51562 26.8125
Q5.51562 40.2344 12.7656 48.1094
Q20.0156 56 32.3281 56
Q43.3594 56 49.7812 48.8906
Q56.2031 41.7969 56.2031 29.5938
M47.2188 32.2344
Q47.125 39.5938 43.0938 43.9844
Q39.0625 48.3906 32.4219 48.3906
Q24.9062 48.3906 20.3906 44.1406
Q15.875 39.8906 15.1875 32.1719
z
" id="BitstreamVeraSans-Roman-65"/>
      <path d="
M9.42188 54.6875
L18.4062 54.6875
L18.4062 0
L9.42188 0
z

M9.42188 75.9844
L18.4062 75.9844
L18.4062 64.5938
L9.42188 64.5938
z
" id="BitstreamVeraSans-Roman-69"/>
      <path d="
M2.98438 54.6875
L12.5 54.6875
L29.5938 8.79688
L46.6875 54.6875
L56.2031 54.6875
L35.6875 0
L23.4844 0
z
" id="BitstreamVeraSans-Roman-76"/>
      <path d="
M45.4062 46.3906
L45.4062 75.9844
L54.3906 75.9844
L54.3906 0
L45.4062 0
L45.4062 8.20312
Q42.5781 3.32812 38.25 0.953125
Q33.9375 -1.42188 27.875 -1.42188
Q17.9688 -1.42188 11.7344 6.48438
Q5.51562 14.4062 5.51562 27.2969
Q5.51562 40.1875 11.7344 48.0938
Q17.9688 56 27.875 56
Q33.9375 56 38.25 53.625
Q42.5781 51.2656 45.4062 46.3906
M14.7969 27.2969
Q14.7969 17.3906 18.875 11.75
Q22.9531 6.10938 30.0781 6.10938
Q37.2031 6.10938 41.2969 11.75
Q45.4062 17.3906 45.4062 27.2969
Q45.4062 37.2031 41.2969 42.8438
Q37.2031 48.4844 30.0781 48.4844
Q22.9531 48.4844 18.875 42.8438
Q14.7969 37.2031 14.7969 27.2969" id="BitstreamVeraSans-Roman-64"/>
      <path d="
M18.3125 70.2188
L18.3125 54.6875
L36.8125 54.6875
L36.8125 47.7031
L18.3125 47.7031
L18.3125 18.0156
Q18.3125 11.3281 20.1406 9.42188
Q21.9688 7.51562 27.5938 7.51562
L36.8125 7.51562
L36.8125 0
L27.5938 0
Q17.1875 0 13.2344 3.875
Q9.28125 7.76562 9.28125 18.0156
L9.28125 47.7031
L2.6875 47.7031
L2.6875 54.6875
L9.28125 54.6875
L9.28125 70.2188
z
" id="BitstreamVeraSans-Roman-74"/>
      <path d="
M41.1094 46.2969
Q39.5938 47.1719 37.8125 47.5781
Q36.0312 48 33.8906 48
Q26.2656 48 22.1875 43.0469
Q18.1094 38.0938 18.1094 28.8125
L18.1094 0
L9.07812 0
L9.07812 54.6875
L18.1094 54.6875
L18.1094 46.1875
Q20.9531 51.1719 25.4844 53.5781
Q30.0312 56 36.5312 56
Q37.4531 56 38.5781 55.875
Q39.7031 55.7656 41.0625 55.5156
z
" id="BitstreamVeraSans-Roman-72"/>
      <path d="
M18.1094 8.20312
L18.1094 -20.7969
L9.07812 -20.7969
L9.07812 54.6875
L18.1094 54.6875
L18.1094 46.3906
Q20.9531 51.2656 25.2656 53.625
Q29.5938 56 35.5938 56
Q45.5625 56 51.7812 48.0938
Q58.0156 40.1875 58.0156 27.2969
Q58.0156 14.4062 51.7812 6.48438
Q45.5625 -1.42188 35.5938 -1.42188
Q29.5938 -1.42188 25.2656 0.953125
Q20.9531 3.32812 18.1094 8.20312
M48.6875 27.2969
Q48.6875 37.2031 44.6094 42.8438
Q40.5312 48.4844 33.4062 48.4844
Q26.2656 48.4844 22.1875 42.8438
Q18.1094 37.2031 18.1094 27.2969
Q18.1094 17.3906 22.1875 11.75
Q26.2656 6.10938 33.4062 6.10938
Q40.5312 6.10938 44.6094 11.75
Q48.6875 17.3906 48.6875 27.2969" id="BitstreamVeraSans-Roman-70"/>
     </defs>
     <g style="fill:#666666;" transform="translate(117.6553125 226.50890625)scale(0.09 -0.09)">
      <use xlink:href="#BitstreamVeraSans-Roman-64"/>
      <use x="63.4765625" xlink:href="#BitstreamVeraSans-Roman-72"/>
      <use x="104.58984375" xlink:href="#BitstreamVeraSans-Roman-69"/>
      <use x="132.373046875" xlink:href="#BitstreamVeraSans-Roman-76"/>
      <use x="191.552734375" xlink:href="#BitstreamVeraSans-Roman-65"/>
      <use x="253.076171875" xlink:href="#BitstreamVeraSans-Roman-72"/>
      <use x="294.189453125" xlink:href="#BitstreamVeraSans-Roman-20"/>
      <use x="325.9765625" xlink:href="#BitstreamVeraSans-Roman-70"/>
      <use x="389.453125" xlink:href="#BitstreamVeraSans-Roman-6f"/>
      <use x="450.634765625" xlink:href="#BitstreamVeraSans-Roman-6c"/>
      <use x="478.41796875" xlink:href="#BitstreamVeraSans-Roman-61"/>
      <use x="539.697265625" xlink:href="#BitstreamVeraSans-Roman-72"/>
      <use x="580.810546875" xlink:href="#BitstreamVeraSans-Roman-69"/>
      <use x="608.59375" xlink:href="#BitstreamVeraSans-Roman-7a"/>
      <use x="661.083984375" xlink:href="#BitstreamVeraSans-Roman-61"/>
      <use x="722.36328125" xlink:href="#BitstreamVeraSans-Roman-74"/>
      <use x="761.572265625" xlink:href="#BitstreamVeraSans-Roman-69"/>
      <use x="789.35546875" xlink:href="#BitstreamVeraSans-Roman-6f"/>
      <use x="850.537109375" xlink:href="#BitstreamVeraSans-Roman-6e"/>
     </g>
    </g>
   </g>
   <g id="matplotlib.axis_2">
    <g id="ytick_1">
     <g id="line2d_12">
      <defs>
       <path d="
M0 0
L3 0" id="m8f39664aab" style="stroke:#666666;stroke-width:0.3;"/>
      </defs>
      <g>
       <use style="fill:#666666;stroke:#666666;stroke-width:0.3;" x="47.52" xlink:href="#m8f39664aab" y="201.96"/>
      </g>
     </g>
     <g id="line2d_13">
      <defs>
       <path d="
M0 0
L-3 0" id="ma322732506" style="stroke:#666666;stroke-width:0.3;"/>
      </defs>
      <g>
       <use style="fill:#666666;stroke:#666666;stroke-width:0.3;" x="269.28" xlink:href="#ma322732506" y="201.96"/>
      </g>
     </g>
     <g id="text_7">
      <!-- −1.0 -->
      <g style="fill:#666666;" transform="translate(23.2165625 204.4434375)scale(0.09 -0.09)">
       <use xlink:href="#BitstreamVeraSans-Roman-2212"/>
       <use x="83.7890625" xlink:href="#BitstreamVeraSans-Roman-31"/>
       <use x="147.412109375" xlink:href="#BitstreamVeraSans-Roman-2e"/>
       <use x="179.19921875" xlink:href="#BitstreamVeraSans-Roman-30"/>
      </g>
     </g>
    </g>
    <g id="ytick_2">
     <g id="line2d_14">
      <g>
       <use style="fill:#666666;stroke:#666666;stroke-width:0.3;" x="47.52" xlink:href="#m8f39664aab" y="160.38"/>
      </g>
     </g>
     <g id="line2d_15">
      <g>
       <use style="fill:#666666;stroke:#666666;stroke-width:0.3;" x="269.28" xlink:href="#ma322732506" y="160.38"/>
      </g>
     </g>
     <g id="text_8">
      <!-- −0.5 -->
      <g style="fill:#666666;" transform="translate(23.405 162.8634375)scale(0.09 -0.09)">
       <use xlink:href="#BitstreamVeraSans-Roman-2212"/>
       <use x="83.7890625" xlink:href="#BitstreamVeraSans-Roman-30"/>
       <use x="147.412109375" xlink:href="#BitstreamVeraSans-Roman-2e"/>
       <use x="179.19921875" xlink:href="#BitstreamVeraSans-Roman-35"/>
      </g>
     </g>
    </g>
    <g id="ytick_3">
     <g id="line2d_16">
      <g>
       <use style="fill:#666666;stroke:#666666;stroke-width:0.3;" x="47.52" xlink:href="#m8f39664aab" y="118.8"/>
      </g>
     </g>
     <g id="line2d_17">
      <g>
       <use style="fill:#666666;stroke:#666666;stroke-width:0.3;" x="269.28" xlink:href="#ma322732506" y="118.8"/>
      </g>
     </g>
     <g id="text_9">
      <!-- 0.0 -->
      <g style="fill:#666666;" transform="translate(30.39828125 121.2834375)scale(0.09 -0.09)">
       <use xlink:href="#BitstreamVeraSans-Roman-30"/>
       <use x="63.623046875" xlink:href="#BitstreamVeraSans-Roman-2e"/>
       <use x="95.41015625" xlink:href="#BitstreamVeraSans-Roman-30"/>
      </g>
     </g>
    </g>
    <g id="ytick_4">
     <g id="line2d_18">
      <g>
       <use style="fill:#666666;stroke:#666666;stroke-width:0.3;" x="47.52" xlink:href="#m8f39664aab" y="77.22"/>
      </g>
     </g>
     <g id="line2d_19">
      <g>
       <use style="fill:#666666;stroke:#666666;stroke-width:0.3;" x="269.28" xlink:href="#ma322732506" y="77.22"/>
      </g>
     </g>
     <g id="text_10">
      <!-- 0.5 -->
      <g style="fill:#666666;" transform="translate(30.58671875 79.7034375)scale(0.09 -0.09)">
       <use xlink:href="#BitstreamVeraSans-Roman-30"/>
       <use x="63.623046875" xlink:href="#BitstreamVeraSans-Roman-2e"/>
       <use x="95.41015625" xlink:href="#BitstreamVeraSans-Roman-35"/>
      </g>
     </g>
    </g>
    <g id="ytick_5">
     <g id="line2d_20">
      <g>
       <use style="fill:#666666;stroke:#666666;stroke-width:0.3;" x="47.52" xlink:href="#m8f39664aab" y="35.64"/>
      </g>
     </g>
     <g id="line2d_21">
      <g>
       <use style="fill:#666666;stroke:#666666;stroke-width:0.3;" x="269.28" xlink:href="#ma322732506" y="35.64"/>
      </g>
     </g>
     <g id="text_11">
      <!-- 1.0 -->
      <g style="fill:#666666;" transform="translate(30.7934375 38.1234375)scale(0.09 -0.09)">
       <use xlink:href="#BitstreamVeraSans-Roman-31"/>
       <use x="63.623046875" xlink:href="#BitstreamVeraSans-Roman-2e"/>
       <use x="95.41015625" xlink:href="#BitstreamVeraSans-Roman-30"/>
      </g>
     </g>
    </g>
    <g id="text_12">
     <!-- cell polarization -->
     <defs>
      <path d="
M48.7812 52.5938
L48.7812 44.1875
Q44.9688 46.2969 41.1406 47.3438
Q37.3125 48.3906 33.4062 48.3906
Q24.6562 48.3906 19.8125 42.8438
Q14.9844 37.3125 14.9844 27.2969
Q14.9844 17.2812 19.8125 11.7344
Q24.6562 6.20312 33.4062 6.20312
Q37.3125 6.20312 41.1406 7.25
Q44.9688 8.29688 48.7812 10.4062
L48.7812 2.09375
Q45.0156 0.34375 40.9844 -0.53125
Q36.9688 -1.42188 32.4219 -1.42188
Q20.0625 -1.42188 12.7812 6.34375
Q5.51562 14.1094 5.51562 27.2969
Q5.51562 40.6719 12.8594 48.3281
Q20.2188 56 33.0156 56
Q37.1562 56 41.1094 55.1406
Q45.0625 54.2969 48.7812 52.5938" id="BitstreamVeraSans-Roman-63"/>
     </defs>
     <g style="fill:#666666;" transform="translate(16.34484375 154.0490625)rotate(-90.0)scale(0.09 -0.09)">
      <use xlink:href="#BitstreamVeraSans-Roman-63"/>
      <use x="54.98046875" xlink:href="#BitstreamVeraSans-Roman-65"/>
      <use x="116.50390625" xlink:href="#BitstreamVeraSans-Roman-6c"/>
      <use x="144.287109375" xlink:href="#BitstreamVeraSans-Roman-6c"/>
      <use x="172.0703125" xlink:href="#BitstreamVeraSans-Roman-20"/>
      <use x="203.857421875" xlink:href="#BitstreamVeraSans-Roman-70"/>
      <use x="267.333984375" xlink:href="#BitstreamVeraSans-Roman-6f"/>
      <use x="328.515625" xlink:href="#BitstreamVeraSans-Roman-6c"/>
      <use x="356.298828125" xlink:href="#BitstreamVeraSans-Roman-61"/>
      <use x="417.578125" xlink:href="#BitstreamVeraSans-Roman-72"/>
      <use x="458.69140625" xlink:href="#BitstreamVeraSans-Roman-69"/>
      <use x="486.474609375" xlink:href="#BitstreamVeraSans-Roman-7a"/>
      <use x="538.96484375" xlink:href="#BitstreamVeraSans-Roman-61"/>
      <use x="600.244140625" xlink:href="#BitstreamVeraSans-Roman-74"/>
      <use x="639.453125" xlink:href="#BitstreamVeraSans-Roman-69"/>
      <use x="667.236328125" xlink:href="#BitstreamVeraSans-Roman-6f"/>
      <use x="728.41796875" xlink:href="#BitstreamVeraSans-Roman-6e"/>
     </g>
    </g>
   </g>
   <g id="patch_3">
    <path d="
M47.52 35.64
L269.28 35.64" style="fill:none;stroke:#666666;stroke-width:0.5;"/>
   </g>
   <g id="patch_4">
    <path d="
M269.28 201.96
L269.28 35.64" style="fill:none;stroke:#666666;stroke-width:0.5;"/>
   </g>
   <g id="patch_5">
    <path d="
M47.52 201.96
L269.28 201.96" style="fill:none;stroke:#666666;stroke-width:0.5;"/>
   </g>
   <g id="patch_6">
    <path d="
M47.52 201.96
L47.52 35.64" style="fill:none;stroke:#666666;stroke-width:0.5;"/>
   </g>
  </g>
 </g>
 <defs>
  <clipPath id="pd34d341f16">
   <rect height="166.32" width="221.76" x="47.52" y="35.64"/>
  </clipPath>
 </defs>
</svg>
