<?xml version="1.0" encoding="UTF-8" standalone="no"?>
<!-- Created with Inkscape (http://www.inkscape.org/) -->

<svg
   xmlns:dc="http://purl.org/dc/elements/1.1/"
   xmlns:cc="http://creativecommons.org/ns#"
   xmlns:rdf="http://www.w3.org/1999/02/22-rdf-syntax-ns#"
   xmlns:svg="http://www.w3.org/2000/svg"
   xmlns="http://www.w3.org/2000/svg"
   xmlns:sodipodi="http://sodipodi.sourceforge.net/DTD/sodipodi-0.dtd"
   xmlns:inkscape="http://www.inkscape.org/namespaces/inkscape"
   width="450"
   height="126"
   id="svg2"
   version="1.1"
   inkscape:version="0.48.4 r9939"
   sodipodi:docname="short_wire.svg">
  <sodipodi:namedview
     id="base"
     pagecolor="#ffffff"
     bordercolor="#666666"
     borderopacity="1.0"
     inkscape:pageopacity="0.0"
     inkscape:pageshadow="2"
     inkscape:zoom="1.4"
     inkscape:cx="188.92216"
     inkscape:cy="209.14895"
     inkscape:document-units="mm"
     inkscape:current-layer="layer1"
     showgrid="true"
     inkscape:window-width="1366"
     inkscape:window-height="744"
     inkscape:window-x="0"
     inkscape:window-y="24"
     inkscape:window-maximized="1"
     units="in"
     objecttolerance="20"
     guidetolerance="10000"
     showguides="false"
     borderlayer="false"
     width="279.4mm"
     height="278.4mm"
     fit-margin-top="10"
     fit-margin-right="10"
     fit-margin-bottom="10"
     fit-margin-left="10"
     inkscape:snap-bbox="false"
     inkscape:snap-nodes="true">
    <inkscape:grid
       originy="0mm"
       originx="0mm"
       spacingy="0.5mm"
       spacingx="0.5mm"
       units="mm"
       snapvisiblegridlinesonly="true"
       enabled="true"
       visible="true"
       empspacing="5"
       id="grid3004"
       type="xygrid" />
  </sodipodi:namedview>
  <defs
     id="defs4">
    <marker
       style="overflow:visible"
       id="StopM"
       refX="0"
       refY="0"
       orient="auto"
       inkscape:stockid="StopM">
      <path
         transform="scale(0.4,0.4)"
         style="fill:none;stroke:#000000;stroke-width:1pt"
         d="M 0,5.65 0,-5.65"
         id="path10800"
         inkscape:connector-curvature="0" />
    </marker>
    <marker
       style="overflow:visible"
       id="SquareL"
       refX="0"
       refY="0"
       orient="auto"
       inkscape:stockid="SquareL">
      <path
         transform="scale(0.8,0.8)"
         style="fill-rule:evenodd;stroke:#000000;stroke-width:1pt"
         d="M -5,-5 -5,5 5,5 5,-5 -5,-5 z"
         id="path10698"
         inkscape:connector-curvature="0" />
    </marker>
    <marker
       style="overflow:visible"
       id="StopL"
       refX="0"
       refY="0"
       orient="auto"
       inkscape:stockid="StopL">
      <path
         inkscape:connector-curvature="0"
         transform="scale(0.8,0.8)"
         style="fill:none;stroke:#000000;stroke-width:1pt"
         d="M 0,5.65 0,-5.65"
         id="path4165" />
    </marker>
    <marker
       style="overflow:visible"
       id="EmptyDiamondS"
       refX="0"
       refY="0"
       orient="auto"
       inkscape:stockid="EmptyDiamondS">
      <path
         inkscape:connector-curvature="0"
         transform="scale(0.2,0.2)"
         style="fill:#ffffff;fill-rule:evenodd;stroke:#000000;stroke-width:1pt"
         d="M 0,-7.0710768 -7.0710894,0 0,7.0710589 7.0710462,0 0,-7.0710768 z"
         id="path4108" />
    </marker>
    <marker
       style="overflow:visible"
       id="Tail"
       refX="0"
       refY="0"
       orient="auto"
       inkscape:stockid="Tail">
      <g
         transform="scale(-1.2,-1.2)"
         id="g4032">
        <path
           inkscape:connector-curvature="0"
           style="fill:none;stroke:#000000;stroke-width:0.80000001;stroke-linecap:round"
           d="M -3.8048674,-3.9585227 0.54352094,0"
           id="path4034" />
        <path
           inkscape:connector-curvature="0"
           style="fill:none;stroke:#000000;stroke-width:0.80000001;stroke-linecap:round"
           d="M -1.2866832,-3.9585227 3.0617053,0"
           id="path4036" />
        <path
           inkscape:connector-curvature="0"
           style="fill:none;stroke:#000000;stroke-width:0.80000001;stroke-linecap:round"
           d="M 1.3053582,-3.9585227 5.6537466,0"
           id="path4038" />
        <path
           inkscape:connector-curvature="0"
           style="fill:none;stroke:#000000;stroke-width:0.80000001;stroke-linecap:round"
           d="M -3.8048674,4.1775838 0.54352094,0.21974226"
           id="path4040" />
        <path
           inkscape:connector-curvature="0"
           style="fill:none;stroke:#000000;stroke-width:0.80000001;stroke-linecap:round"
           d="M -1.2866832,4.1775838 3.0617053,0.21974226"
           id="path4042" />
        <path
           inkscape:connector-curvature="0"
           style="fill:none;stroke:#000000;stroke-width:0.80000001;stroke-linecap:round"
           d="M 1.3053582,4.1775838 5.6537466,0.21974226"
           id="path4044" />
      </g>
    </marker>
    <marker
       style="overflow:visible"
       id="DotM"
       refX="0"
       refY="0"
       orient="auto"
       inkscape:stockid="DotM">
      <path
         inkscape:connector-curvature="0"
         transform="matrix(0.4,0,0,0.4,2.96,0.4)"
         style="fill-rule:evenodd;stroke:#000000;stroke-width:1pt"
         d="m -2.5,-1 c 0,2.76 -2.24,5 -5,5 -2.76,0 -5,-2.24 -5,-5 0,-2.76 2.24,-5 5,-5 2.76,0 5,2.24 5,5 z"
         id="path4060" />
    </marker>
    <marker
       inkscape:stockid="DistanceEnd"
       orient="auto"
       refY="0"
       refX="0"
       id="DistanceEnd"
       style="overflow:visible">
      <g
         id="g2301">
        <path
           inkscape:connector-curvature="0"
           id="path2316"
           d="M 0,0 -2,0"
           style="fill:none;stroke:#ffffff;stroke-width:1.14999998;stroke-linecap:square" />
        <path
           inkscape:connector-curvature="0"
           id="path2312"
           d="M 0,0 -13,4 -9,0 -13,-4 0,0 z"
           style="fill:#000000;fill-rule:evenodd;stroke:none" />
        <path
           inkscape:connector-curvature="0"
           id="path2314"
           d="M 0,-4 0,40"
           style="fill:none;stroke:#000000;stroke-width:1;stroke-linecap:square" />
      </g>
    </marker>
    <marker
       inkscape:stockid="DistanceStart"
       orient="auto"
       refY="0"
       refX="0"
       id="DistanceStart"
       style="overflow:visible">
      <g
         id="g2300">
        <path
           inkscape:connector-curvature="0"
           id="path2306"
           d="M 0,0 2,0"
           style="fill:none;stroke:#ffffff;stroke-width:1.14999998;stroke-linecap:square" />
        <path
           inkscape:connector-curvature="0"
           id="path2302"
           d="M 0,0 13,4 9,0 13,-4 0,0 z"
           style="fill:#000000;fill-rule:evenodd;stroke:none" />
        <path
           inkscape:connector-curvature="0"
           id="path2304"
           d="M 0,-4 0,40"
           style="fill:none;stroke:#000000;stroke-width:1;stroke-linecap:square" />
      </g>
    </marker>
    <marker
       inkscape:stockid="Arrow1Mstart"
       orient="auto"
       refY="0"
       refX="0"
       id="Arrow1Mstart"
       style="overflow:visible">
      <path
         inkscape:connector-curvature="0"
         id="path3837"
         d="M 0,0 5,-5 -12.5,0 5,5 0,0 z"
         style="fill-rule:evenodd;stroke:#000000;stroke-width:1pt"
         transform="matrix(0.4,0,0,0.4,4,0)" />
    </marker>
    <marker
       inkscape:stockid="Arrow1Mend"
       orient="auto"
       refY="0"
       refX="0"
       id="Arrow1Mend"
       style="overflow:visible">
      <path
         inkscape:connector-curvature="0"
         id="path3840"
         d="M 0,0 5,-5 -12.5,0 5,5 0,0 z"
         style="fill-rule:evenodd;stroke:#000000;stroke-width:1pt"
         transform="matrix(-0.4,0,0,-0.4,-4,0)" />
    </marker>
    <marker
       style="overflow:visible"
       id="Arrow2Mend"
       refX="0"
       refY="0"
       orient="auto"
       inkscape:stockid="Arrow2Mend">
      <path
         inkscape:connector-curvature="0"
         transform="scale(-0.6,-0.6)"
         d="M 8.7185878,4.0337352 -2.2072895,0.01601326 8.7185884,-4.0017078 c -1.7454984,2.3720609 -1.7354408,5.6174519 -6e-7,8.035443 z"
         style="fill-rule:evenodd;stroke-width:0.625;stroke-linejoin:round"
         id="path3858" />
    </marker>
    <marker
       style="overflow:visible"
       id="Arrow1Lend"
       refX="0"
       refY="0"
       orient="auto"
       inkscape:stockid="Arrow1Lend">
      <path
         inkscape:connector-curvature="0"
         transform="matrix(-0.8,0,0,-0.8,-10,0)"
         style="fill-rule:evenodd;stroke:#000000;stroke-width:1pt"
         d="M 0,0 5,-5 -12.5,0 5,5 0,0 z"
         id="path3834" />
    </marker>
    <marker
       style="overflow:visible"
       id="Arrow2Lend"
       refX="0"
       refY="0"
       orient="auto"
       inkscape:stockid="Arrow2Lend">
      <path
         inkscape:connector-curvature="0"
         transform="matrix(-1.1,0,0,-1.1,-1.1,0)"
         d="M 8.7185878,4.0337352 -2.2072895,0.01601326 8.7185884,-4.0017078 c -1.7454984,2.3720609 -1.7354408,5.6174519 -6e-7,8.035443 z"
         style="fill-rule:evenodd;stroke-width:0.625;stroke-linejoin:round"
         id="path3852" />
    </marker>
    <marker
       style="overflow:visible"
       id="Arrow1Lstart"
       refX="0"
       refY="0"
       orient="auto"
       inkscape:stockid="Arrow1Lstart">
      <path
         inkscape:connector-curvature="0"
         transform="matrix(0.8,0,0,0.8,10,0)"
         style="fill-rule:evenodd;stroke:#000000;stroke-width:1pt"
         d="M 0,0 5,-5 -12.5,0 5,5 0,0 z"
         id="path3831" />
    </marker>
    <marker
       style="overflow:visible"
       id="Arrow2Mendq"
       refX="0"
       refY="0"
       orient="auto"
       inkscape:stockid="Arrow2Mendq">
      <path
         inkscape:connector-curvature="0"
         transform="scale(-0.6,-0.6)"
         d="M 8.7185878,4.0337352 -2.2072895,0.01601326 8.7185884,-4.0017078 c -1.7454984,2.3720609 -1.7354408,5.6174519 -6e-7,8.035443 z"
         style="fill:#666666;fill-rule:evenodd;stroke:#666666;stroke-width:0.625;stroke-linejoin:round"
         id="path5586" />
    </marker>
    <marker
       inkscape:stockid="Arrow1Mstartq"
       orient="auto"
       refY="0"
       refX="0"
       id="Arrow1Mstartq"
       style="overflow:visible">
      <path
         inkscape:connector-curvature="0"
         id="path7377"
         d="M 0,0 5,-5 -12.5,0 5,5 0,0 z"
         style="fill:#666666;fill-rule:evenodd;stroke:#666666;stroke-width:1pt"
         transform="matrix(0.4,0,0,0.4,4,0)" />
    </marker>
    <marker
       style="overflow:visible"
       id="StopLs"
       refX="0"
       refY="0"
       orient="auto"
       inkscape:stockid="StopLs">
      <path
         inkscape:connector-curvature="0"
         transform="scale(0.8,0.8)"
         style="fill:none;stroke:#666666;stroke-width:1pt"
         d="M 0,5.65 0,-5.65"
         id="path8916" />
    </marker>
    <marker
       style="overflow:visible"
       id="StopLM"
       refX="0"
       refY="0"
       orient="auto"
       inkscape:stockid="StopLM">
      <path
         inkscape:connector-curvature="0"
         transform="scale(0.8,0.8)"
         style="fill:none;stroke:#666666;stroke-width:1pt"
         d="M 0,5.65 0,-5.65"
         id="path8919" />
    </marker>
    <marker
       style="overflow:visible"
       id="StopLsh"
       refX="0"
       refY="0"
       orient="auto"
       inkscape:stockid="StopLsh">
      <path
         inkscape:connector-curvature="0"
         transform="scale(0.8,0.8)"
         style="fill:none;stroke:#999999;stroke-width:1pt"
         d="M 0,5.65 0,-5.65"
         id="path9179" />
    </marker>
    <marker
       style="overflow:visible"
       id="StopLMr"
       refX="0"
       refY="0"
       orient="auto"
       inkscape:stockid="StopLMr">
      <path
         inkscape:connector-curvature="0"
         transform="scale(0.8,0.8)"
         style="fill:none;stroke:#999999;stroke-width:1pt"
         d="M 0,5.65 0,-5.65"
         id="path9182" />
    </marker>
    <marker
       style="overflow:visible"
       id="StopLsG"
       refX="0"
       refY="0"
       orient="auto"
       inkscape:stockid="StopLsG">
      <path
         inkscape:connector-curvature="0"
         transform="scale(0.8,0.8)"
         style="fill:none;stroke:#999999;stroke-width:1pt"
         d="M 0,5.65 0,-5.65"
         id="path9383" />
    </marker>
    <marker
       style="overflow:visible"
       id="StopLMw"
       refX="0"
       refY="0"
       orient="auto"
       inkscape:stockid="StopLMw">
      <path
         inkscape:connector-curvature="0"
         transform="scale(0.8,0.8)"
         style="fill:none;stroke:#999999;stroke-width:1pt"
         d="M 0,5.65 0,-5.65"
         id="path9386" />
    </marker>
    <marker
       style="overflow:visible"
       id="StopLsp"
       refX="0"
       refY="0"
       orient="auto"
       inkscape:stockid="StopLsp">
      <path
         inkscape:connector-curvature="0"
         transform="scale(0.8,0.8)"
         style="fill:none;stroke:#999999;stroke-width:1pt"
         d="M 0,5.65 0,-5.65"
         id="path9595" />
    </marker>
    <marker
       style="overflow:visible"
       id="StopLMI"
       refX="0"
       refY="0"
       orient="auto"
       inkscape:stockid="StopLMI">
      <path
         inkscape:connector-curvature="0"
         transform="scale(0.8,0.8)"
         style="fill:none;stroke:#999999;stroke-width:1pt"
         d="M 0,5.65 0,-5.65"
         id="path9598" />
    </marker>
    <marker
       style="overflow:visible"
       id="StopM5"
       refX="0"
       refY="0"
       orient="auto"
       inkscape:stockid="StopM5">
      <path
         transform="scale(0.4,0.4)"
         style="fill:none;stroke:#999999;stroke-width:1pt"
         d="M 0,5.65 0,-5.65"
         id="path12147"
         inkscape:connector-curvature="0" />
    </marker>
    <marker
       style="overflow:visible"
       id="StopMk"
       refX="0"
       refY="0"
       orient="auto"
       inkscape:stockid="StopMk">
      <path
         transform="scale(0.4,0.4)"
         style="fill:none;stroke:#999999;stroke-width:1pt"
         d="M 0,5.65 0,-5.65"
         id="path12150"
         inkscape:connector-curvature="0" />
    </marker>
  </defs>
  <metadata
     id="metadata7">
    <rdf:RDF>
      <cc:Work
         rdf:about="">
        <dc:format>image/svg+xml</dc:format>
        <dc:type
           rdf:resource="http://purl.org/dc/dcmitype/StillImage" />
        <dc:title />
      </cc:Work>
    </rdf:RDF>
  </metadata>
  <g
     transform="translate(2.0685117,-891.96923)"
     id="layer1"
     inkscape:groupmode="layer"
     inkscape:label="Layer 1">
    <g
       id="g12323"
       transform="translate(0,168)">
      <text
         xml:space="preserve"
         style="font-size:10px;font-style:normal;font-weight:normal;line-height:125%;letter-spacing:0px;word-spacing:0px;fill:#999999;fill-opacity:1;stroke:none;font-family:Sans"
         x="47.50235"
         y="809.22021"
         id="text7637"
         sodipodi:linespacing="125%"><tspan
           sodipodi:role="line"
           id="tspan7639"
           x="47.50235"
           y="809.22021"
           style="font-size:14px">a</tspan></text>
      <text
         xml:space="preserve"
         style="font-size:10px;font-style:normal;font-weight:normal;line-height:125%;letter-spacing:0px;word-spacing:0px;fill:#666666;fill-opacity:1;stroke:none;font-family:Bitstream Vera Sans"
         x="73.312248"
         y="840.80383"
         id="text3234"
         sodipodi:linespacing="125%"><tspan
           sodipodi:role="line"
           id="tspan3236"
           x="73.312248"
           y="840.80383"
           style="font-size:14px;fill:#666666">P<tspan
   style="font-size:65.00091553%;baseline-shift:sub"
   id="tspan7789">D</tspan></tspan></text>
      <text
         sodipodi:linespacing="125%"
         id="text3242"
         y="823.08728"
         x="171.09685"
         style="font-size:10px;font-style:normal;font-weight:normal;line-height:125%;letter-spacing:0px;word-spacing:0px;fill:#666666;fill-opacity:1;stroke:none;font-family:Bitstream Vera Sans"
         xml:space="preserve"><tspan
           style="font-size:14px;fill:#666666"
           y="823.08728"
           x="171.09685"
           id="tspan3244"
           sodipodi:role="line">P<tspan
   style="font-size:65.00091553%;baseline-shift:sub"
   id="tspan7791">1</tspan></tspan></text>
      <text
         xml:space="preserve"
         style="font-size:10px;font-style:normal;font-weight:normal;line-height:125%;letter-spacing:0px;word-spacing:0px;fill:#666666;fill-opacity:1;stroke:none;font-family:Bitstream Vera Sans"
         x="268.53778"
         y="805.37073"
         id="text3248"
         sodipodi:linespacing="125%"><tspan
           sodipodi:role="line"
           id="tspan3250"
           x="268.53778"
           y="805.37073"
           style="font-size:14px;fill:#666666">P<tspan
   style="font-size:65.00091553%;baseline-shift:sub"
   id="tspan7793">2</tspan></tspan></text>
      <text
         transform="matrix(0.96592583,-0.25881905,0.25881905,0.96592583,0,0)"
         xml:space="preserve"
         style="font-size:14px;font-style:normal;font-weight:normal;line-height:125%;letter-spacing:0px;word-spacing:0px;fill:#999999;fill-opacity:1;stroke:none;font-family:Sans"
         x="-85.894371"
         y="797.66272"
         id="text9053"
         sodipodi:linespacing="125%"><tspan
           sodipodi:role="line"
           id="tspan9055"
           x="-85.894371"
           y="797.66272">d</tspan></text>
      <text
         sodipodi:linespacing="125%"
         id="text9082"
         y="787.65424"
         x="365.97873"
         style="font-size:10px;font-style:normal;font-weight:normal;line-height:125%;letter-spacing:0px;word-spacing:0px;fill:#666666;fill-opacity:1;stroke:none;font-family:Bitstream Vera Sans"
         xml:space="preserve"><tspan
           style="font-size:14px;fill:#666666"
           y="787.65424"
           x="365.97873"
           id="tspan9084"
           sodipodi:role="line">P<tspan
   style="font-size:65.00091553%;baseline-shift:sub"
   id="tspan7795">3</tspan></tspan></text>
      <path
         sodipodi:end="0.90699145"
         sodipodi:start="0.72850352"
         transform="matrix(0.32017967,-0.41031299,0.40860873,0.32151511,-36.651283,774.08131)"
         d="m 194.03572,304.56057 c -5.60158,6.27821 -11.75264,12.04364 -18.37987,17.22759 L 88.582497,210.47244 z"
         sodipodi:ry="141.32571"
         sodipodi:rx="141.32571"
         sodipodi:cy="210.47244"
         sodipodi:cx="88.582497"
         id="path9094"
         style="fill:none;stroke:#999999;stroke-width:3.40576601;stroke-linecap:round;stroke-linejoin:miter;stroke-miterlimit:4;stroke-opacity:1;stroke-dasharray:none;stroke-dashoffset:0"
         sodipodi:type="arc" />
      <text
         sodipodi:linespacing="125%"
         id="text9100"
         y="803.59906"
         x="141.43542"
         style="font-size:10px;font-style:normal;font-weight:normal;line-height:125%;letter-spacing:0px;word-spacing:0px;fill:#999999;fill-opacity:1;stroke:none;font-family:Sans"
         xml:space="preserve"><tspan
           y="803.59906"
           x="141.43542"
           id="tspan9106"
           sodipodi:role="line"
           style="font-size:12px">θ</tspan></text>
      <g
         id="g12318">
        <path
           inkscape:connector-curvature="0"
           id="path9120"
           d="m 272.59341,769.97437 97.44075,-17.71654"
           style="fill:none;stroke:#999999;stroke-width:1.77165353;stroke-linecap:butt;stroke-linejoin:round;stroke-miterlimit:4;stroke-opacity:1;stroke-dasharray:none;marker-start:url(#StopM5);marker-mid:none;marker-end:url(#StopMk)"
           sodipodi:nodetypes="cc" />
        <path
           sodipodi:nodetypes="cc"
           style="fill:none;stroke:#999999;stroke-width:1.77165353;stroke-linecap:butt;stroke-linejoin:round;stroke-miterlimit:4;stroke-opacity:1;stroke-dasharray:none;marker-start:url(#StopM5);marker-mid:none;marker-end:url(#StopMk)"
           d="m 175.33256,787.64939 97.44075,-17.71654"
           id="path12314"
           inkscape:connector-curvature="0" />
        <path
           inkscape:connector-curvature="0"
           id="path12316"
           d="M 77.664839,805.26008 175.10559,787.54354"
           style="fill:none;stroke:#999999;stroke-width:1.77165353;stroke-linecap:butt;stroke-linejoin:round;stroke-miterlimit:4;stroke-opacity:1;stroke-dasharray:none;marker-start:url(#StopM5);marker-mid:none;marker-end:url(#StopMk)"
           sodipodi:nodetypes="cc" />
      </g>
      <g
         id="g9108"
         transform="matrix(0.5,0,0,0.5,33.42066,668.99005)">
        <rect
           style="fill:none;stroke:#666666;stroke-width:3.54330707;stroke-linecap:round;stroke-linejoin:round;stroke-miterlimit:4;stroke-opacity:1;stroke-dasharray:none;stroke-dashoffset:0"
           id="rect7551"
           width="70.866142"
           height="70.866142"
           x="52.567104"
           y="237.32674" />
        <path
           sodipodi:type="arc"
           style="fill:#ffffff;stroke:#666666;stroke-width:10.29137325;stroke-linecap:round;stroke-linejoin:round;stroke-miterlimit:4;stroke-opacity:1;stroke-dasharray:none;stroke-dashoffset:0"
           id="path7553"
           sodipodi:cx="53.149605"
           sodipodi:cy="51.023621"
           sodipodi:rx="17.716536"
           sodipodi:ry="17.716536"
           d="m 70.86614,51.023621 c 0,9.784572 -7.931963,17.716535 -17.716535,17.716535 -9.784573,0 -17.716536,-7.931963 -17.716536,-17.716535 0,-9.784573 7.931963,-17.716536 17.716536,-17.716536 9.784572,0 17.716535,7.931963 17.716535,17.716536 z"
           transform="matrix(0.34429876,0,0,0.34429876,34.267762,219.75937)" />
        <path
           transform="matrix(0.34429876,0,0,0.34429876,105.28562,219.75937)"
           d="m 70.86614,51.023621 c 0,9.784572 -7.931963,17.716535 -17.716535,17.716535 -9.784573,0 -17.716536,-7.931963 -17.716536,-17.716535 0,-9.784573 7.931963,-17.716536 17.716536,-17.716536 9.784572,0 17.716535,7.931963 17.716535,17.716536 z"
           sodipodi:ry="17.716536"
           sodipodi:rx="17.716536"
           sodipodi:cy="51.023621"
           sodipodi:cx="53.149605"
           id="path7555"
           style="fill:#666666;stroke:#666666;stroke-width:10.29137325;stroke-linecap:round;stroke-linejoin:round;stroke-miterlimit:4;stroke-opacity:1;stroke-dasharray:none;stroke-dashoffset:0"
           sodipodi:type="arc" />
        <path
           transform="matrix(0.34429876,0,0,0.34429876,34.267762,290.74151)"
           d="m 70.86614,51.023621 c 0,9.784572 -7.931963,17.716535 -17.716535,17.716535 -9.784573,0 -17.716536,-7.931963 -17.716536,-17.716535 0,-9.784573 7.931963,-17.716536 17.716536,-17.716536 9.784572,0 17.716535,7.931963 17.716535,17.716536 z"
           sodipodi:ry="17.716536"
           sodipodi:rx="17.716536"
           sodipodi:cy="51.023621"
           sodipodi:cx="53.149605"
           id="path7557"
           style="fill:#666666;stroke:#666666;stroke-width:10.29137325;stroke-linecap:round;stroke-linejoin:round;stroke-miterlimit:4;stroke-opacity:1;stroke-dasharray:none;stroke-dashoffset:0"
           sodipodi:type="arc" />
        <path
           sodipodi:type="arc"
           style="fill:#ffffff;stroke:#666666;stroke-width:10.29137325;stroke-linecap:round;stroke-linejoin:round;stroke-miterlimit:4;stroke-opacity:1;stroke-dasharray:none;stroke-dashoffset:0"
           id="path7559"
           sodipodi:cx="53.149605"
           sodipodi:cy="51.023621"
           sodipodi:rx="17.716536"
           sodipodi:ry="17.716536"
           d="m 70.86614,51.023621 c 0,9.784572 -7.931963,17.716535 -17.716535,17.716535 -9.784573,0 -17.716536,-7.931963 -17.716536,-17.716535 0,-9.784573 7.931963,-17.716536 17.716536,-17.716536 9.784572,0 17.716535,7.931963 17.716535,17.716536 z"
           transform="matrix(0.34429876,0,0,0.34429876,105.19633,290.74151)" />
      </g>
      <g
         id="g4767"
         transform="matrix(0.5,0,0,0.5,51.13716,651.27355)">
        <rect
           style="fill:none;stroke:#666666;stroke-width:3.54330707;stroke-linecap:round;stroke-linejoin:round;stroke-miterlimit:4;stroke-opacity:1;stroke-dasharray:none;stroke-dashoffset:0"
           id="rect3156"
           width="70.866142"
           height="70.866142"
           x="212.56711"
           y="237.32674" />
        <path
           sodipodi:type="arc"
           style="fill:#ffffff;stroke:#666666;stroke-width:10.29137325;stroke-linecap:round;stroke-linejoin:round;stroke-miterlimit:4;stroke-opacity:1;stroke-dasharray:none;stroke-dashoffset:0"
           id="path3158"
           sodipodi:cx="53.149605"
           sodipodi:cy="51.023621"
           sodipodi:rx="17.716536"
           sodipodi:ry="17.716536"
           d="m 70.86614,51.023621 c 0,9.784572 -7.931963,17.716535 -17.716535,17.716535 -9.784573,0 -17.716536,-7.931963 -17.716536,-17.716535 0,-9.784573 7.931963,-17.716536 17.716536,-17.716536 9.784572,0 17.716535,7.931963 17.716535,17.716536 z"
           transform="matrix(0.34429876,0,0,0.34429876,194.26776,219.75937)" />
        <path
           transform="matrix(0.34429876,0,0,0.34429876,265.28562,219.75937)"
           d="m 70.86614,51.023621 c 0,9.784572 -7.931963,17.716535 -17.716535,17.716535 -9.784573,0 -17.716536,-7.931963 -17.716536,-17.716535 0,-9.784573 7.931963,-17.716536 17.716536,-17.716536 9.784572,0 17.716535,7.931963 17.716535,17.716536 z"
           sodipodi:ry="17.716536"
           sodipodi:rx="17.716536"
           sodipodi:cy="51.023621"
           sodipodi:cx="53.149605"
           id="path3160"
           style="fill:#666666;stroke:#666666;stroke-width:10.29137325;stroke-linecap:round;stroke-linejoin:round;stroke-miterlimit:4;stroke-opacity:1;stroke-dasharray:none;stroke-dashoffset:0"
           sodipodi:type="arc" />
        <path
           transform="matrix(0.34429876,0,0,0.34429876,194.26776,290.74151)"
           d="m 70.86614,51.023621 c 0,9.784572 -7.931963,17.716535 -17.716535,17.716535 -9.784573,0 -17.716536,-7.931963 -17.716536,-17.716535 0,-9.784573 7.931963,-17.716536 17.716536,-17.716536 9.784572,0 17.716535,7.931963 17.716535,17.716536 z"
           sodipodi:ry="17.716536"
           sodipodi:rx="17.716536"
           sodipodi:cy="51.023621"
           sodipodi:cx="53.149605"
           id="path3162"
           style="fill:#666666;stroke:#666666;stroke-width:10.29137325;stroke-linecap:round;stroke-linejoin:round;stroke-miterlimit:4;stroke-opacity:1;stroke-dasharray:none;stroke-dashoffset:0"
           sodipodi:type="arc" />
        <path
           sodipodi:type="arc"
           style="fill:#ffffff;stroke:#666666;stroke-width:10.29137325;stroke-linecap:round;stroke-linejoin:round;stroke-miterlimit:4;stroke-opacity:1;stroke-dasharray:none;stroke-dashoffset:0"
           id="path3164"
           sodipodi:cx="53.149605"
           sodipodi:cy="51.023621"
           sodipodi:rx="17.716536"
           sodipodi:ry="17.716536"
           d="m 70.86614,51.023621 c 0,9.784572 -7.931963,17.716535 -17.716535,17.716535 -9.784573,0 -17.716536,-7.931963 -17.716536,-17.716535 0,-9.784573 7.931963,-17.716536 17.716536,-17.716536 9.784572,0 17.716535,7.931963 17.716535,17.716536 z"
           transform="matrix(0.34429876,0,0,0.34429876,265.19633,290.74151)" />
      </g>
      <g
         id="g4779"
         transform="matrix(0.5,0,0,0.5,68.85366,633.55705)">
        <rect
           y="237.32674"
           x="372.56711"
           height="70.866142"
           width="70.866142"
           id="rect3118"
           style="fill:none;stroke:#666666;stroke-width:3.54330707;stroke-linecap:round;stroke-linejoin:round;stroke-miterlimit:4;stroke-opacity:1;stroke-dasharray:none;stroke-dashoffset:0" />
        <path
           transform="matrix(0.34429876,0,0,0.34429876,354.26776,219.75937)"
           d="m 70.86614,51.023621 c 0,9.784572 -7.931963,17.716535 -17.716535,17.716535 -9.784573,0 -17.716536,-7.931963 -17.716536,-17.716535 0,-9.784573 7.931963,-17.716536 17.716536,-17.716536 9.784572,0 17.716535,7.931963 17.716535,17.716536 z"
           sodipodi:ry="17.716536"
           sodipodi:rx="17.716536"
           sodipodi:cy="51.023621"
           sodipodi:cx="53.149605"
           id="path3120"
           style="fill:#ffffff;stroke:#666666;stroke-width:10.29137325;stroke-linecap:round;stroke-linejoin:round;stroke-miterlimit:4;stroke-opacity:1;stroke-dasharray:none;stroke-dashoffset:0"
           sodipodi:type="arc" />
        <path
           sodipodi:type="arc"
           style="fill:#666666;stroke:#666666;stroke-width:10.29137325;stroke-linecap:round;stroke-linejoin:round;stroke-miterlimit:4;stroke-opacity:1;stroke-dasharray:none;stroke-dashoffset:0"
           id="path3122"
           sodipodi:cx="53.149605"
           sodipodi:cy="51.023621"
           sodipodi:rx="17.716536"
           sodipodi:ry="17.716536"
           d="m 70.86614,51.023621 c 0,9.784572 -7.931963,17.716535 -17.716535,17.716535 -9.784573,0 -17.716536,-7.931963 -17.716536,-17.716535 0,-9.784573 7.931963,-17.716536 17.716536,-17.716536 9.784572,0 17.716535,7.931963 17.716535,17.716536 z"
           transform="matrix(0.34429876,0,0,0.34429876,425.28562,219.75937)" />
        <path
           sodipodi:type="arc"
           style="fill:#666666;stroke:#666666;stroke-width:10.29137325;stroke-linecap:round;stroke-linejoin:round;stroke-miterlimit:4;stroke-opacity:1;stroke-dasharray:none;stroke-dashoffset:0"
           id="path3124"
           sodipodi:cx="53.149605"
           sodipodi:cy="51.023621"
           sodipodi:rx="17.716536"
           sodipodi:ry="17.716536"
           d="m 70.86614,51.023621 c 0,9.784572 -7.931963,17.716535 -17.716535,17.716535 -9.784573,0 -17.716536,-7.931963 -17.716536,-17.716535 0,-9.784573 7.931963,-17.716536 17.716536,-17.716536 9.784572,0 17.716535,7.931963 17.716535,17.716536 z"
           transform="matrix(0.34429876,0,0,0.34429876,354.26776,290.74151)" />
        <path
           transform="matrix(0.34429876,0,0,0.34429876,425.19633,290.74151)"
           d="m 70.86614,51.023621 c 0,9.784572 -7.931963,17.716535 -17.716535,17.716535 -9.784573,0 -17.716536,-7.931963 -17.716536,-17.716535 0,-9.784573 7.931963,-17.716536 17.716536,-17.716536 9.784572,0 17.716535,7.931963 17.716535,17.716536 z"
           sodipodi:ry="17.716536"
           sodipodi:rx="17.716536"
           sodipodi:cy="51.023621"
           sodipodi:cx="53.149605"
           id="path3126"
           style="fill:#ffffff;stroke:#666666;stroke-width:10.29137325;stroke-linecap:round;stroke-linejoin:round;stroke-miterlimit:4;stroke-opacity:1;stroke-dasharray:none;stroke-dashoffset:0"
           sodipodi:type="arc" />
      </g>
      <g
         transform="matrix(0.5,0,0,0.5,166.29441,615.84055)"
         id="g3156">
        <rect
           style="fill:none;stroke:#666666;stroke-width:3.54330707;stroke-linecap:round;stroke-linejoin:round;stroke-miterlimit:4;stroke-opacity:1;stroke-dasharray:none;stroke-dashoffset:0"
           id="rect3158"
           width="70.866142"
           height="70.866142"
           x="372.56711"
           y="237.32674" />
        <path
           sodipodi:type="arc"
           style="fill:#ffffff;stroke:#666666;stroke-width:10.29137325;stroke-linecap:round;stroke-linejoin:round;stroke-miterlimit:4;stroke-opacity:1;stroke-dasharray:none;stroke-dashoffset:0"
           id="path3161"
           sodipodi:cx="53.149605"
           sodipodi:cy="51.023621"
           sodipodi:rx="17.716536"
           sodipodi:ry="17.716536"
           d="m 70.86614,51.023621 c 0,9.784572 -7.931963,17.716535 -17.716535,17.716535 -9.784573,0 -17.716536,-7.931963 -17.716536,-17.716535 0,-9.784573 7.931963,-17.716536 17.716536,-17.716536 9.784572,0 17.716535,7.931963 17.716535,17.716536 z"
           transform="matrix(0.34429876,0,0,0.34429876,354.26776,219.75937)" />
        <path
           transform="matrix(0.34429876,0,0,0.34429876,425.28562,219.75937)"
           d="m 70.86614,51.023621 c 0,9.784572 -7.931963,17.716535 -17.716535,17.716535 -9.784573,0 -17.716536,-7.931963 -17.716536,-17.716535 0,-9.784573 7.931963,-17.716536 17.716536,-17.716536 9.784572,0 17.716535,7.931963 17.716535,17.716536 z"
           sodipodi:ry="17.716536"
           sodipodi:rx="17.716536"
           sodipodi:cy="51.023621"
           sodipodi:cx="53.149605"
           id="path3163"
           style="fill:#666666;stroke:#666666;stroke-width:10.29137325;stroke-linecap:round;stroke-linejoin:round;stroke-miterlimit:4;stroke-opacity:1;stroke-dasharray:none;stroke-dashoffset:0"
           sodipodi:type="arc" />
        <path
           transform="matrix(0.34429876,0,0,0.34429876,354.26776,290.74151)"
           d="m 70.86614,51.023621 c 0,9.784572 -7.931963,17.716535 -17.716535,17.716535 -9.784573,0 -17.716536,-7.931963 -17.716536,-17.716535 0,-9.784573 7.931963,-17.716536 17.716536,-17.716536 9.784572,0 17.716535,7.931963 17.716535,17.716536 z"
           sodipodi:ry="17.716536"
           sodipodi:rx="17.716536"
           sodipodi:cy="51.023621"
           sodipodi:cx="53.149605"
           id="path3165"
           style="fill:#666666;stroke:#666666;stroke-width:10.29137325;stroke-linecap:round;stroke-linejoin:round;stroke-miterlimit:4;stroke-opacity:1;stroke-dasharray:none;stroke-dashoffset:0"
           sodipodi:type="arc" />
        <path
           sodipodi:type="arc"
           style="fill:#ffffff;stroke:#666666;stroke-width:10.29137325;stroke-linecap:round;stroke-linejoin:round;stroke-miterlimit:4;stroke-opacity:1;stroke-dasharray:none;stroke-dashoffset:0"
           id="path3167"
           sodipodi:cx="53.149605"
           sodipodi:cy="51.023621"
           sodipodi:rx="17.716536"
           sodipodi:ry="17.716536"
           d="m 70.86614,51.023621 c 0,9.784572 -7.931963,17.716535 -17.716535,17.716535 -9.784573,0 -17.716536,-7.931963 -17.716536,-17.716535 0,-9.784573 7.931963,-17.716536 17.716536,-17.716536 9.784572,0 17.716535,7.931963 17.716535,17.716536 z"
           transform="matrix(0.34429876,0,0,0.34429876,425.19633,290.74151)" />
      </g>
    </g>
  </g>
</svg>
